<svg width="32" height="32" viewBox="0 0 32 32" fill="none" xmlns="http://www.w3.org/2000/svg">
<g id="X">
<path id="Vector (Stroke)" fill-rule="evenodd" clip-rule="evenodd" d="M24.9426 7.05715C25.4633 7.57785 25.4633 8.42207 24.9426 8.94277L8.94265 24.9428C8.42195 25.4635 7.57773 25.4635 7.05703 24.9428C6.53633 24.4221 6.53633 23.5778 7.05703 23.0571L23.057 7.05715C23.5777 6.53645 24.4219 6.53645 24.9426 7.05715Z" fill="white"/>
<path id="Vector (Stroke)_2" fill-rule="evenodd" clip-rule="evenodd" d="M7.05703 7.05715C7.57773 6.53645 8.42195 6.53645 8.94265 7.05715L24.9426 23.0571C25.4633 23.5778 25.4633 24.4221 24.9426 24.9428C24.4219 25.4635 23.5777 25.4635 23.057 24.9428L7.05703 8.94277C6.53633 8.42207 6.53633 7.57785 7.05703 7.05715Z" fill="white"/>
</g>
</svg>
