<svg width="100" height="100" viewBox="0 0 100 100" fill="none" xmlns="http://www.w3.org/2000/svg">
<g id="Group 5">
<g id="Group">
<g id="Group_2">
<g id="Vector">
<path d="M67.2459 82H30.3287C27.0609 82 24 79.1728 24 76.0923V26.8616C24 25.8331 25.0186 24.8923 26.1096 24.8923H71.4651C72.556 24.8923 73.5746 25.8331 73.5746 26.8616V76.0923C73.5745 79.1728 70.5137 82 67.2459 82Z" fill="#DFEEFA"/>
</g>
</g>
<g id="Vector_2">
<path d="M71.4651 24.8923H48.2599V82H67.2459C70.5832 82 73.5746 79.1728 73.5746 76.0923V26.8616C73.5745 25.8331 72.5794 24.8923 71.4651 24.8923Z" fill="#C9DFF7"/>
</g>
<g id="Group_3">
<g id="Group_4">
<g id="Vector_3">
<path d="M32.4382 31.7846C31.2732 31.7846 30.3287 30.8285 30.3287 29.8154V19.9692C30.3287 18.9561 31.2732 18 32.4382 18C33.6033 18 34.5478 18.9561 34.5478 19.9692V29.8154C34.5478 30.8285 33.6033 31.7846 32.4382 31.7846Z" fill="#606A70"/>
</g>
</g>
<g id="Group_5">
<g id="Vector_4">
<path d="M40.8765 31.7846C39.7115 31.7846 38.7669 30.8285 38.7669 29.8154V19.9692C38.7669 18.9561 39.7115 18 40.8765 18C42.0415 18 42.986 18.9561 42.986 19.9692V29.8154C42.986 30.8285 42.0415 31.7846 40.8765 31.7846Z" fill="#606A70"/>
</g>
</g>
<g id="Group_6">
<g id="Vector_5">
<path d="M48.2599 31.7846C47.0949 31.7846 46.1504 30.8285 46.1504 29.8154V19.9692C46.1504 18.9561 47.0949 18 48.2599 18C49.425 18 50.3695 18.9561 50.3695 19.9692V29.8154C50.3695 30.8285 49.425 31.7846 48.2599 31.7846Z" fill="#606A70"/>
</g>
</g>
<g id="Group_7">
<g id="Vector_6">
<path d="M56.6982 31.7846C55.5331 31.7846 54.5886 30.8285 54.5886 29.8154V19.9692C54.5886 18.9561 55.5331 18 56.6982 18C57.8632 18 58.8077 18.9561 58.8077 19.9692V29.8154C58.8077 30.8285 57.8634 31.7846 56.6982 31.7846Z" fill="#414952"/>
</g>
</g>
<g id="Group_8">
<g id="Vector_7">
<path d="M64.0816 31.7846C62.9166 31.7846 61.9721 30.8285 61.9721 29.8154V19.9692C61.9721 18.9561 62.9166 18 64.0816 18C65.2467 18 66.1912 18.9561 66.1912 19.9692V29.8154C66.1912 30.8285 65.2467 31.7846 64.0816 31.7846Z" fill="#414952"/>
</g>
</g>
</g>
<g id="Vector_8">
<path d="M50.3695 29.8154V19.9692C50.3695 18.9561 49.425 18 48.2599 18V31.7846C49.425 31.7846 50.3695 30.8285 50.3695 29.8154Z" fill="#414952"/>
</g>
</g>
<g id="Group_9">
<g id="Group_10">
<g id="Vector_9">
<path d="M49.3147 42.6153H34.5478C33.4523 42.6153 32.4382 41.7337 32.4382 40.6461C32.4382 39.5586 33.4523 38.6769 34.5478 38.6769H49.3147C50.4102 38.6769 51.4243 39.5586 51.4243 40.6461C51.4243 41.7338 50.4102 42.6153 49.3147 42.6153Z" fill="#82A0D2"/>
</g>
</g>
<g id="Group_11">
<g id="Vector_10">
<path d="M64.0816 50.4923H34.5478C33.4574 50.4923 32.4382 49.6106 32.4382 48.5231C32.4382 47.4355 33.4574 46.5538 34.5478 46.5538H64.0816C65.172 46.5538 66.1912 47.4355 66.1912 48.5231C66.1912 49.6106 65.172 50.4923 64.0816 50.4923Z" fill="#82A0D2"/>
</g>
</g>
<g id="Group_12">
<g id="Vector_11">
<path d="M59.8625 57.3846H34.5478C33.4397 57.3846 32.4382 56.5029 32.4382 55.4154C32.4382 54.3279 33.4397 53.4462 34.5478 53.4462H59.8625C60.9706 53.4462 61.972 54.3279 61.972 55.4154C61.972 56.5029 60.9706 57.3846 59.8625 57.3846Z" fill="#82A0D2"/>
</g>
</g>
<g id="Group_13">
<g id="Vector_12">
<path d="M52.479 65.2615H34.5478C33.4715 65.2615 32.4382 64.3798 32.4382 63.2923C32.4382 62.2047 33.4715 61.3231 34.5478 61.3231H52.479C53.5553 61.3231 54.5886 62.2047 54.5886 63.2923C54.5886 64.3798 53.5553 65.2615 52.479 65.2615Z" fill="#82A0D2"/>
</g>
</g>
<g id="Group_14">
<g id="Vector_13">
<path d="M49.3147 72.1539H34.5478C33.4496 72.1539 32.4382 71.2722 32.4382 70.1846C32.4382 69.0971 33.4496 68.2154 34.5478 68.2154H49.3147C50.4129 68.2154 51.4243 69.0971 51.4243 70.1846C51.4243 71.2722 50.4129 72.1539 49.3147 72.1539Z" fill="#82A0D2"/>
</g>
</g>
<g id="Group_15">
<g id="Vector_14">
<path d="M51.4242 70.1846C51.4242 69.0971 50.4797 68.2154 49.3146 68.2154V72.1539C50.4797 72.1539 51.4242 71.2722 51.4242 70.1846Z" fill="#9EBBDB"/>
</g>
<g id="Vector_15">
<path d="M52.479 61.3231H49.3146V65.2615H52.479C53.5125 65.2615 54.5885 64.3798 54.5885 63.2923C54.5885 62.2046 53.5125 61.3231 52.479 61.3231Z" fill="#5877A6"/>
</g>
<g id="Vector_16">
<path d="M59.8624 53.4462H49.3146V57.3846H59.8624C60.9951 57.3846 61.972 56.5029 61.972 55.4154C61.972 54.3279 60.9951 53.4462 59.8624 53.4462Z" fill="#5877A6"/>
</g>
<g id="Vector_17">
<path d="M64.0816 46.5538H49.3146V50.4923H64.0816C65.1719 50.4923 66.1911 49.6106 66.1911 48.5231C66.1911 47.4355 65.1719 46.5538 64.0816 46.5538Z" fill="#5877A6"/>
</g>
<g id="Vector_18">
<path d="M49.3146 38.6769V42.6153C50.4526 42.6153 51.4242 41.7337 51.4242 40.6461C51.4242 39.5586 50.4526 38.6769 49.3146 38.6769Z" fill="#5877A6"/>
</g>
</g>
</g>
<g id="Group_16">
<g id="Group_17">
<g id="Vector_19">
<path d="M49.3147 72.1539C48.7854 72.1539 48.6502 71.5343 48.26 71.1693C47.6596 70.6079 46.8539 69.9229 47.2052 69.2L52.4791 59.3539C52.3062 59.5144 52.5825 59.1409 52.4791 59.3539C52.7676 59.086 54.5886 57.3846 54.5886 57.3846L63.0269 65.2616C63.0269 65.2616 61.2067 66.9602 60.9173 67.2308C60.7469 67.3901 61.1427 67.1349 60.9173 67.2308L50.3695 72.1539C50.0991 72.2688 49.5995 72.1539 49.3147 72.1539Z" fill="#FFEDD6"/>
</g>
</g>
<g id="Vector_20">
<path d="M49.3147 72.1539C49.5924 72.1539 50.1057 72.2699 50.3694 72.1539L60.9172 67.2308C60.7511 67.3917 61.1371 67.1341 60.9172 67.2308C61.1995 66.9576 63.0268 65.2616 63.0268 65.2616L58.8077 61.3231L48.2599 71.1693C48.6407 71.5377 48.7985 72.1539 49.3147 72.1539Z" fill="#FFDAAB"/>
</g>
<g id="Group_18">
<g id="Vector_21">
<path d="M52.479 59.3539L77.7937 35.7231C78.9273 34.6761 80.4098 33.7539 82.0128 33.7539C83.6158 33.7539 85.0985 34.6761 86.2319 35.7231C88.5717 37.8844 88.5716 41.4386 86.2319 43.6001L60.9172 67.2308L52.479 59.3539Z" fill="#FFE645"/>
</g>
</g>
<g id="Vector_22">
<path d="M60.9172 67.2307L86.2319 43.5999C88.5737 41.4621 88.5737 37.8609 86.2319 35.723L56.6981 63.2923L60.9172 67.2307Z" fill="#FFB500"/>
</g>
<path id="Vector_23" d="M75.6977 37.7496L68.8347 44.1025L77.2897 51.9291L84.1527 45.5762L75.6977 37.7496Z" fill="#606A70"/>
<path id="Vector_24" d="M80.3153 41.2988L73.5746 47.5385L77.7767 51.4282L84.5174 45.1885L80.3153 41.2988Z" fill="#414952"/>
<g id="Group_19">
<g id="Vector_25">
<path d="M86.2319 35.7231C85.0976 34.6987 83.6171 33.7539 82.0128 33.7539C80.4085 33.7539 79.1345 34.4755 78.0001 35.5L75.6841 37.6924L84.1224 45.5693L86.2319 42.6154C88.5736 40.5007 88.5736 37.8377 86.2319 35.7231Z" fill="#FF826E"/>
</g>
<g id="Vector_26">
<path d="M84.1224 45.5692L86.232 43.5999C88.5894 41.564 88.5894 37.7589 86.232 35.723L79.9033 41.6307L84.1224 45.5692Z" fill="#FE5857"/>
</g>
</g>
<g id="Group_20">
<g id="Vector_27">
<path d="M48.2601 67.2308L47.2053 69.2C46.8777 69.8761 47.7001 70.644 48.2601 71.1692C48.6241 71.5107 48.8212 72.1539 49.3149 72.1539C49.5804 72.1539 50.1175 72.2613 50.3696 72.1539L52.4792 71.1692L48.2601 67.2308Z" fill="#416191"/>
</g>
<g id="Vector_28">
<path d="M49.3147 72.1539C49.5561 72.1539 50.1402 72.2563 50.3694 72.1539L52.479 71.1692L50.3694 69.2L48.2599 71.1692C48.5907 71.4943 48.866 72.1539 49.3147 72.1539Z" fill="#28415E"/>
</g>
</g>
</g>
<circle id="Ellipse" cx="50" cy="50" r="49.5" stroke="#119FC3"/>
</g>
</svg>
