<svg width="150" height="150" viewBox="0 0 150 150" fill="none" xmlns="http://www.w3.org/2000/svg">
<g clip-path="url(#clip0_110_707)">
<path d="M118.5 31.5001H31.5C28.7586 31.5001 27 33.2384 27 36.0001V103.5C27 106.262 28.7586 108 31.5 108H63L60 118.5C59.4062 120.628 60.8069 123 63 123H87C89.1931 123 90.5938 120.628 90 118.5L87 108H118.5C121.241 108 123 106.262 123 103.5V36.0001C123 33.2384 121.241 31.5001 118.5 31.5001Z" fill="#CBE3FA"/>
<path d="M118.5 31.5001C121.242 31.5001 123 33.2576 123 36.0001V37.5001C123 38.8712 121.371 40.5001 120 40.5001H94.5C63.4214 40.5001 38.755 63.7296 37.5 94.5001C37.4456 95.8352 35.8363 97.5001 34.5 97.5001H27V36.0001C27 33.2576 28.7576 31.5001 31.5 31.5001H118.5Z" fill="#EEF7FF"/>
<path d="M27 97.5001V103.5C27 106.316 28.7586 108 31.5 108H63L60 118.5C59.4062 120.67 60.8069 123 63 123H87C89.1931 123 90.5938 120.67 90 118.5L87 108H118.5C121.241 108 123 106.316 123 103.5V97.5001H27Z" fill="#B5D5F5"/>
<path d="M64.5 123H63C60.7006 123 59.3774 120.688 60 118.5L63 108H72L69 118.5C68.1405 121.52 66.8035 123 64.5 123Z" fill="#CBE3FA"/>
<path d="M37.5 100.5V105C37.5 106.392 35.8917 108 34.5 108H31.5C28.7164 108 27 106.284 27 103.5V97.5001H34.5C35.8917 97.5001 37.5 99.1084 37.5 100.5Z" fill="#CBE3FA"/>
<path d="M87 111H64.5C63.3782 111 62.6956 110.457 63 109.5V108H88.5V109.5C88.8044 110.457 88.1218 111 87 111Z" fill="#9EC7F0"/>
<path d="M94.5 87.0001C94.5267 87.0001 87.0271 84.0095 87 84.0001C83.3348 82.7385 81 78.7281 81 75.0001C86.9946 72.5511 91.5 66.8529 91.5 60.0001C94.1193 60.0001 96 57.6555 96 55.5001V40.5001C96.0062 33.2128 89.8662 27.0062 82.5 27.0001H70.5C65.0463 26.998 60.5297 30.9916 58.5 36.0001C55.9994 35.998 54 38.0266 54 40.5001V55.5001C53.9979 57.7481 56.2029 59.998 58.5 60.0001C58.5 67.4497 63.1844 72.5981 69 75.0001C68.9846 78.7525 66.6695 82.7369 63 84.0001C62.9766 84.0081 55.4393 87.0001 55.5 87.0001C51.8806 88.2501 49.5 90.6843 49.5 94.5001V97.5001H100.5V94.5001C100.5 90.6843 98.1194 88.2501 94.5 87.0001Z" fill="#FFEBD2"/>
<path d="M78 73.5001C79.9783 73.7353 79.9746 76.2393 78 76.5001C67.4775 77.8894 58.5 69.7934 58.5 60.0001V51.0001C58.5 50.487 59.4896 49.6765 60 49.5001C59.6174 49.6824 60.4038 49.3583 60 49.5001C61.1352 48.959 63 49.7983 63 51.0001V57.0001C63.0002 65.2276 69.4152 72.479 78 73.5001Z" fill="#FFF3E4"/>
<path d="M81 79.5001C77.5342 80.8199 74.2306 80.9215 70.5 79.5001C69.6837 79.189 68.8305 78.9347 69 78.0001C69.1178 77.3509 68.9964 77.1786 69 76.5001C73.1253 78.3917 78.3447 78.3846 82.5 76.5001C82.5152 76.6771 82.3024 76.9259 82.5 78.0001C82.6716 78.9328 81.815 79.1897 81 79.5001Z" fill="#FFD9AD"/>
<path d="M96 40.5001V55.5001C96 57.6493 94.1547 60.0001 91.5 60.0001V52.5001C91.5 51.7774 90.7293 50.9328 90 51.0001C81.3911 51.7946 74.0209 49.5098 67.5 45.0001C66.8835 44.5738 64.8504 44.3426 64.5 45.0001C63.1902 47.4582 61.0699 50.0637 58.5 51.0001C58.0069 51.1798 58.5 50.4813 58.5 51.0001V60.0001C56.1799 59.998 53.9979 57.7483 54 55.5001V40.5001C54 38.0264 55.9743 35.998 58.5 36.0001C60.55 30.9912 64.9917 26.998 70.5 27.0001H82.5C89.94 27.0062 96.0062 33.2123 96 40.5001Z" fill="#585966"/>
<path d="M84 27.0001C86.7049 27.0882 86.7063 31.4837 84 31.5001C82.4674 31.5095 80.2112 31.5177 78 31.5001C72.7822 31.4589 68.2213 34.4258 66 39.0001C65.786 39.4407 64.9877 38.9179 64.5 39.0001C62.348 39.3622 60 41.288 60 43.5001V49.5001C60 50.1149 60.6332 50.7656 60 51.0001C59.5061 51.1784 58.5 50.4814 58.5 51.0001V60.0001C56.182 59.998 53.9979 57.7482 54 55.5001V40.5001C54 38.0266 55.9765 35.998 58.5 36.0001C60.5483 30.9915 66.4965 26.998 72 27.0001C72 27.0001 83.8535 26.9954 84 27.0001Z" fill="#6E6F80"/>
<path d="M100.5 94.5001V97.5001H49.5V94.5001C49.5 90.7867 51.8806 88.2166 55.5 87.0001C55.4494 87.0001 62.9708 84.0098 63 84.0001C64.2442 83.5833 65.089 83.3397 66 82.5001C68.367 91.5542 81.631 91.5642 84 82.5001C84.911 83.3377 85.7558 83.5833 87 84.0001C87.0206 84.0068 94.5206 87.0001 94.5 87.0001C98.1194 88.2168 100.5 90.7867 100.5 94.5001Z" fill="#FF6D7A"/>
<path d="M67.5 84.0001C67.983 84.8704 66.9802 86.6796 66 87.0001C65.9781 87.0072 61.5219 88.5001 61.5 88.5001C56.6533 90.0934 55.7197 93.8633 55.5 96.0001C55.4157 96.8203 54.8688 97.5001 54 97.5001H49.5V94.5001C49.5 90.7866 51.7994 88.2166 55.5 87.0001C55.4485 87.0001 62.9701 84.0098 63 84.0001C64.2721 83.5832 65.0686 83.3397 66 82.5001C66.2054 83.2703 67.1455 83.3611 67.5 84.0001Z" fill="#FF8C95"/>
<path d="M88.5 78.0001C87.0556 78.0001 85.985 76.0675 87 75.0001C90.2079 71.6261 93.5735 67.5722 94.5 63.0001C94.6837 62.0942 95.1045 61.314 96 61.5001C96.8951 61.686 97.6837 62.0942 97.5 63.0001C96.4473 68.1938 93.6426 74.1687 90 78.0001C89.6755 78.3417 88.9341 78.0001 88.5 78.0001Z" fill="#585966"/>
<path d="M100.5 54.0001V61.5001C100.5 63.4582 98.0995 64.4193 96 64.5001C95.8474 64.5059 96.5717 64.5001 93 64.5001C92.0059 64.5001 91.5 63.9175 91.5 63.0001V52.5001C91.5 51.5827 92.0059 51.0001 93 51.0001H96C98.182 51.0001 100.5 51.9863 100.5 54.0001Z" fill="#80AAFF"/>
<path d="M96 54.0001C94.7792 54.0001 94.5 54.6742 94.5 55.5001V63.0001C94.5 63.6189 93.6571 64.5001 93 64.5001C92.0287 64.5001 91.5 63.9147 91.5 63.0001V52.5001C91.5 51.5854 92.0287 51.0001 93 51.0001C96.2274 51.0001 95.4976 50.9115 96 51.0001C97.4002 51.2469 97.4244 54.0001 96 54.0001Z" fill="#9CBCFF"/>
<path d="M58.5 52.5001V63.0001C58.5 63.9176 57.9941 64.5001 57 64.5001H54C51.8179 64.5001 49.5 63.5143 49.5 61.5001V54.0001C49.5 51.9859 51.8179 51.0001 54 51.0001H57C57.9941 51.0001 58.5 51.5825 58.5 52.5001Z" fill="#80AAFF"/>
<path d="M58.5 52.5001C58.5 52.951 57.497 54.0001 57 54.0001C54.5828 54.0001 53.9816 55.11 54 57.0001C54.0002 57.0125 54.0106 59.6498 54 61.5001C53.9865 63.87 49.5 64.1068 49.5 61.5001V54.0001C49.5 52.0205 51.8179 51.0001 54 51.0001H57C57.9941 51.0003 58.5 51.5983 58.5 52.5001Z" fill="#9CBCFF"/>
</g>
<circle cx="75" cy="75" r="74.5" stroke="#119FC3"/>
<defs>
<clipPath id="clip0_110_707">
<rect width="96" height="96.0021" fill="white" transform="translate(27 26.998)"/>
</clipPath>
</defs>
</svg>
