<svg width="100" height="100" viewBox="0 0 100 100" fill="none" xmlns="http://www.w3.org/2000/svg">
<g clip-path="url(#clip0_110_705)">
<path d="M79 21.0001H21C19.1724 21.0001 18 22.1589 18 24.0001V69.0001C18 70.8412 19.1724 72.0001 21 72.0001H42L40 79.0001C39.6041 80.4188 40.5379 82.0001 42 82.0001H58C59.4621 82.0001 60.3959 80.4188 60 79.0001L58 72.0001H79C80.8276 72.0001 82 70.8412 82 69.0001V24.0001C82 22.1589 80.8276 21.0001 79 21.0001Z" fill="#CBE3FA"/>
<path d="M79 21.0001C80.8283 21.0001 82 22.1718 82 24.0001V25.0001C82 25.9141 80.9141 27.0001 80 27.0001H63C42.281 27.0001 25.8367 42.4864 25 63.0001C24.9637 63.8901 23.8909 65.0001 23 65.0001H18V24.0001C18 22.1718 19.1717 21.0001 21 21.0001H79Z" fill="#EEF7FF"/>
<path d="M18 65.0001V69.0001C18 70.8771 19.1724 72.0001 21 72.0001H42L40 79.0001C39.6041 80.4465 40.5379 82.0001 42 82.0001H58C59.4621 82.0001 60.3959 80.4465 60 79.0001L58 72.0001H79C80.8276 72.0001 82 70.8771 82 69.0001V65.0001H18Z" fill="#B5D5F5"/>
<path d="M43 82.0001H42C40.4671 82.0001 39.585 80.4586 40 79.0001L42 72.0001H48L46 79.0001C45.427 81.0135 44.5357 82.0001 43 82.0001Z" fill="#CBE3FA"/>
<path d="M25 67.0001V70.0001C25 70.9278 23.9278 72.0001 23 72.0001H21C19.1443 72.0001 18 70.8558 18 69.0001V65.0001H23C23.9278 65.0001 25 66.0723 25 67.0001Z" fill="#CBE3FA"/>
<path d="M58 74.0001H43C42.2522 74.0001 41.7971 73.6381 42 73.0001V72.0001H59V73.0001C59.2029 73.6381 58.7478 74.0001 58 74.0001Z" fill="#9EC7F0"/>
<path d="M63 58.0001C63.0178 58.0001 58.0181 56.0063 58 56.0001C55.5565 55.159 54 52.4855 54 50.0001C57.9964 48.3675 61 44.5686 61 40.0001C62.7462 40.0001 64 38.437 64 37.0001V27.0001C64.0041 22.1419 59.9108 18.0042 55 18.0001H47C43.3642 17.9987 40.3531 20.6611 39 24.0001C37.3329 23.9987 36 25.3511 36 27.0001V37.0001C35.9986 38.4988 37.4686 39.9987 39 40.0001C39 44.9665 42.1229 48.3987 46 50.0001C45.9897 52.5017 44.4464 55.1579 42 56.0001C41.9844 56.0054 36.9596 58.0001 37 58.0001C34.5871 58.8334 33 60.4562 33 63.0001V65.0001H67V63.0001C67 60.4562 65.4129 58.8334 63 58.0001Z" fill="#FFEBD2"/>
<path d="M52 49C53.3188 49.1569 53.3164 50.8262 52 51C44.985 51.9263 39 46.5289 39 40V34C39 33.658 39.6597 33.1177 40 33C39.745 33.1216 40.2692 32.9055 40 33C40.7568 32.6393 42 33.1989 42 34V38C42.0001 43.4851 46.2768 48.3193 52 49Z" fill="#FFF3E4"/>
<path d="M54 53.0001C51.6894 53.88 49.487 53.9477 47 53.0001C46.4558 52.7927 45.887 52.6232 46 52.0001C46.0785 51.5673 45.9976 51.4524 46 51.0001C48.7502 52.2611 52.2298 52.2564 55 51.0001C55.0101 51.1181 54.8683 51.284 55 52.0001C55.1144 52.6219 54.5433 52.7931 54 53.0001Z" fill="#FFD9AD"/>
<path d="M64 27.0001V37.0001C64 38.4329 62.7698 40.0001 61 40.0001V35.0001C61 34.5183 60.4862 33.9552 60 34.0001C54.2607 34.5298 49.3473 33.0066 45 30.0001C44.589 29.7159 43.2336 29.5618 43 30.0001C42.1268 31.6388 40.7133 33.3758 39 34.0001C38.6713 34.1199 39 33.6543 39 34.0001V40.0001C37.4533 39.9987 35.9986 38.4989 36 37.0001V27.0001C36 25.351 37.3162 23.9987 39 24.0001C40.3667 20.6608 43.3278 17.9987 47 18.0001H55C59.96 18.0042 64.0042 22.1415 64 27.0001Z" fill="#585966"/>
<path d="M56 18.0001C57.8032 18.0588 57.8042 20.9891 56 21.0001C54.9783 21.0063 53.4741 21.0118 52 21.0001C48.5215 20.9726 45.4809 22.9505 44 26.0001C43.8574 26.2938 43.3251 25.9453 43 26.0001C41.5653 26.2415 40 27.5254 40 29.0001V33.0001C40 33.4099 40.4221 33.8438 40 34.0001C39.6707 34.1189 39 33.6543 39 34.0001V40.0001C37.4546 39.9987 35.9986 38.4988 36 37.0001V27.0001C36 25.351 37.3177 23.9987 39 24.0001C40.3655 20.661 44.331 17.9987 48 18.0001C48 18.0001 55.9023 17.9969 56 18.0001Z" fill="#6E6F80"/>
<path d="M67 63.0001V65.0001H33V63.0001C33 60.5245 34.5871 58.8111 37 58.0001C36.9663 58.0001 41.9805 56.0066 42 56.0001C42.8294 55.7222 43.3927 55.5598 44 55.0001C45.578 61.0362 54.4206 61.0428 56 55.0001C56.6073 55.5585 57.1706 55.7222 58 56.0001C58.0137 56.0046 63.0137 58.0001 63 58.0001C65.4129 58.8112 67 60.5245 67 63.0001Z" fill="#FF6D7A"/>
<path d="M45 56.0001C45.322 56.5803 44.6535 57.7864 44 58.0001C43.9854 58.0048 41.0146 59.0001 41 59.0001C37.7689 60.0623 37.1465 62.5756 37 64.0001C36.9438 64.5469 36.5792 65.0001 36 65.0001H33V63.0001C33 60.5244 34.533 58.8111 37 58.0001C36.9657 58.0001 41.9801 56.0066 42 56.0001C42.848 55.7222 43.379 55.5598 44 55.0001C44.1369 55.5135 44.7637 55.5741 45 56.0001Z" fill="#FF8C95"/>
<path d="M59 52.0001C58.0371 52.0001 57.3233 50.7117 58 50.0001C60.1386 47.7507 62.3823 45.0481 63 42.0001C63.1224 41.3962 63.403 40.876 64 41.0001C64.5967 41.124 65.1224 41.3962 65 42.0001C64.2982 45.4626 62.4284 49.4458 60 52.0001C59.7837 52.2278 59.2894 52.0001 59 52.0001Z" fill="#585966"/>
<path d="M67 36.0001V41.0001C67 42.3055 65.3997 42.9462 64 43.0001C63.8983 43.0039 64.3811 43.0001 62 43.0001C61.3373 43.0001 61 42.6117 61 42.0001V35.0001C61 34.3885 61.3373 34.0001 62 34.0001H64C65.4547 34.0001 67 34.6575 67 36.0001Z" fill="#80AAFF"/>
<path d="M64 36.0001C63.1861 36.0001 63 36.4495 63 37.0001V42.0001C63 42.4126 62.4381 43.0001 62 43.0001C61.3525 43.0001 61 42.6098 61 42.0001V35.0001C61 34.3903 61.3525 34.0001 62 34.0001C64.1516 34.0001 63.6651 33.941 64 34.0001C64.9335 34.1646 64.9496 36.0001 64 36.0001Z" fill="#9CBCFF"/>
<path d="M39 35.0001V42.0001C39 42.6118 38.6627 43.0001 38 43.0001H36C34.5453 43.0001 33 42.3429 33 41.0001V36.0001C33 34.6573 34.5453 34.0001 36 34.0001H38C38.6627 34.0001 39 34.3883 39 35.0001Z" fill="#80AAFF"/>
<path d="M39 35.0001C39 35.3007 38.3314 36.0001 38 36.0001C36.3885 36.0001 35.9877 36.74 36 38.0001C36.0001 38.0084 36.0071 39.7665 36 41.0001C35.991 42.5801 33 42.7379 33 41.0001V36.0001C33 34.6804 34.5453 34.0001 36 34.0001H38C38.6627 34.0002 39 34.3989 39 35.0001Z" fill="#9CBCFF"/>
</g>
<circle cx="50" cy="50" r="49.5" stroke="#119FC3"/>
<defs>
<clipPath id="clip0_110_705">
<rect width="64" height="64.0014" fill="white" transform="translate(18 17.9987)"/>
</clipPath>
</defs>
</svg>
