<svg width="128" height="93" viewBox="0 0 128 93" fill="none" xmlns="http://www.w3.org/2000/svg">
<g id="Group">
<g id="Group_2">
<g id="Group_3">
<g id="Vector">
<path d="M122 12H6C2.58477 12 0 14.5642 0 18V87C0 90.4358 2.58477 93 6 93H122C125.415 93 128 90.4358 128 87V18C128 14.5642 125.415 12 122 12Z" fill="#717D94"/>
</g>
</g>
<g id="Group_4">
<path id="Vector_2" d="M70 83H58V93H70V83Z" fill="#717D94"/>
</g>
<g id="Group_5">
<g id="Vector_3">
<path d="M119 76V82C119 83.1045 118.135 84 117 84H10C8.86482 84 8 83.1045 8 82V76L20 70L70 72L111 70L119 76Z" fill="#E6BE8A"/>
</g>
</g>
<g id="Group_6">
<g id="Vector_4">
<path d="M11 80C28.0434 72.9557 47.228 73.0986 64 81V6C46.675 -2.16199 26.4481 -1.78537 9 6C8.24919 6.33509 8 7.17692 8 8V78C8 79.5 9.6153 80.5723 11 80Z" fill="#FFEBB7"/>
</g>
</g>
<g id="Group_7">
<g id="Vector_5">
<path d="M64 81C80.772 73.0983 99.9566 72.9557 117 80C118.385 80.5723 120 79.5 120 78V8C120 7.17692 119.751 6.33509 119 6C101.552 -1.78537 81.3247 -2.16199 64 6V81Z" fill="#FFD788"/>
</g>
</g>
<g id="Group_8">
<g id="Group_9">
<g id="Vector_6">
<path d="M72 67C71.1619 67 70.2633 65.9108 70 65C69.6752 63.8765 69.9639 63.3529 71 63C72.9915 62.3221 75.9489 61.4654 78 61C79.0612 60.7585 79.7771 61.845 80 63C80.2229 64.1526 79.0652 64.7585 78 65C76.0739 65.4374 74.8685 66.364 73 67C72.8039 67.0664 72.1941 67 72 67Z" fill="#717D94"/>
</g>
</g>
</g>
<g id="Group_10">
<g id="Group_11">
<g id="Vector_7">
<path d="M112 67C111.797 67 111.205 67.0613 111 67C103.224 64.6739 95.1126 63.3846 87 64C85.8488 64.0785 85.0904 63.0804 85 62C84.9114 60.9189 85.865 60.0861 87 60C95.6579 59.352 104.721 60.5232 113 63C114.085 63.3249 114.34 64.9657 114 66C113.724 66.8387 112.877 67 112 67Z" fill="#717D94"/>
</g>
</g>
</g>
<g id="Group_12">
<g id="Group_13">
<g id="Vector_8">
<path d="M111 59C110.799 59 110.202 59.0615 110 59C97.7534 55.2791 85.2466 55.2791 73 59C71.9232 59.3257 70.3337 59.0359 70 58C69.6643 56.9631 69.9291 55.3257 71 55C84.0454 51.037 98.9546 51.037 112 55C113.071 55.3257 113.336 56.9631 113 58C112.728 58.8409 111.866 59 111 59Z" fill="#717D94"/>
</g>
</g>
</g>
<g id="Group_14">
<g id="Group_15">
<g id="Vector_9">
<path d="M72 50C71.1205 50 70.2763 49.8526 70 49C69.6591 47.9483 69.9126 46.3304 71 46C78.6033 43.6939 87.0517 42.6392 95 43C96.1377 43.0526 97.0545 43.8986 97 45C96.9476 46.1034 96.1579 47.0459 95 47C87.5418 46.6599 80.1375 47.8342 73 50C72.7945 50.0621 72.2037 50 72 50Z" fill="#717D94"/>
</g>
</g>
</g>
<g id="Group_16">
<g id="Group_17">
<g id="Vector_10">
<path d="M111 50C110.805 50 110.196 50.0624 110 50C107.505 49.2066 105.582 48.4604 103 48C101.926 47.8076 100.809 47.0872 101 46C101.189 44.9138 101.928 43.8076 103 44C105.75 44.4909 109.341 45.1549 112 46C113.039 46.3307 113.326 47.9471 113 49C112.735 49.8538 111.841 50 111 50Z" fill="#717D94"/>
</g>
</g>
</g>
<g id="Group_18">
<g id="Group_19">
<g id="Vector_11">
<path d="M111 42C110.799 42 110.202 42.0615 110 42C97.7534 38.2786 85.2466 38.2786 73 42C71.9232 42.3238 70.3337 42.0351 70 41C69.6643 39.9629 69.9291 38.3258 71 38C84.0454 34.0365 98.9546 34.0365 112 38C113.071 38.3258 113.336 39.9629 113 41C112.728 41.841 111.866 42 111 42Z" fill="#717D94"/>
</g>
</g>
</g>
<g id="Group_20">
<g id="Group_21">
<g id="Vector_12">
<path d="M72 34C71.104 34 70.2815 32.9102 70 32C69.6527 30.8773 69.8922 30.3527 71 30C75.2339 28.6535 80.5875 27.4954 85 27C86.1715 26.8575 86.8727 27.8328 87 29C87.1273 30.1696 86.1549 30.8711 85 31C80.8587 31.4661 76.9727 32.7358 73 34C72.7903 34.0663 72.2076 34 72 34Z" fill="#717D94"/>
</g>
</g>
</g>
<g id="Group_22">
<g id="Group_23">
<g id="Vector_13">
<path d="M112 34C111.795 34 111.207 34.063 111 34C105.134 32.2105 99.1505 31.0935 93 31C91.8515 30.9824 90.9818 30.1138 91 29C91.0182 27.8872 91.9104 26.935 93 27C99.5502 27.1003 106.752 28.0945 113 30C114.094 30.3338 114.343 31.9374 114 33C113.72 33.8617 112.885 34 112 34Z" fill="#717D94"/>
</g>
</g>
</g>
<g id="Group_24">
<g id="Group_25">
<g id="Vector_14">
<path d="M72 26C71.1244 26 70.2751 25.8194 70 25C69.6607 23.9893 69.9175 22.3175 71 22C79.9611 19.3745 89.6572 18.0305 99 19C100.129 19.1161 101.125 20.9471 101 22C100.876 23.052 100.151 23.1369 99 23C90.2356 22.0933 81.413 23.5337 73 26C72.7954 26.0599 72.2028 26 72 26Z" fill="#717D94"/>
</g>
</g>
</g>
<g id="Group_26">
<g id="Group_27">
<g id="Vector_15">
<path d="M111 26C110.807 26 110.195 26.0596 110 26C108.757 25.6191 108.276 25.3025 107 25C105.95 24.7504 104.744 23.0234 105 22C105.256 20.9766 105.94 20.7523 107 21C108.356 21.3223 110.675 21.5948 112 22C113.031 22.3156 113.323 23.9952 113 25C112.738 25.8148 111.834 26 111 26Z" fill="#717D94"/>
</g>
</g>
</g>
<g id="Group_28">
<g id="Group_29">
<g id="Vector_16">
<path d="M72 17C71.1659 17 70.262 16.8146 70 16C69.6767 14.9945 69.9668 13.3146 71 13C72.3469 12.5884 74.6666 12.3156 76 12C77.0447 11.7495 77.7436 11.9768 78 13C78.2564 14.0232 77.0503 15.7514 76 16C74.7489 16.296 74.2665 16.6137 73 17C72.8048 17.0593 72.1932 17 72 17Z" fill="#717D94"/>
</g>
</g>
</g>
<g id="Group_30">
<g id="Group_31">
<g id="Vector_17">
<path d="M112 17C111.797 17 111.205 17.0599 111 17C102.585 14.5337 93.7664 13.0943 85 14C83.8633 14.1292 83.1244 14.0508 83 13C82.8756 11.9471 83.8715 10.1161 85 10C94.3387 9.0305 104.037 10.3745 113 13C114.083 13.3175 114.34 14.9893 114 16C113.725 16.8194 112.876 17 112 17Z" fill="#717D94"/>
</g>
</g>
</g>
<g id="Group_32">
<g id="Group_33">
<g id="Vector_18">
<path d="M17 67C16.1619 67 15.2635 65.9108 15 65C14.6752 63.8765 14.9639 63.3529 16 63C17.9915 62.3221 20.9489 61.4654 23 61C24.0629 60.7585 24.7771 61.845 25 63C25.2229 64.1526 24.0652 64.7585 23 65C21.0739 65.4374 19.8685 66.364 18 67C17.8039 67.0664 17.1941 67 17 67Z" fill="#B4B6BC"/>
</g>
</g>
</g>
<g id="Group_34">
<g id="Group_35">
<g id="Vector_19">
<path d="M56 67C55.7967 67 55.2051 67.0613 55 67C47.2254 64.6739 39.1126 63.3846 31 64C29.8328 64.0785 29.0904 63.0804 29 62C28.9114 60.9189 29.865 60.0861 31 60C39.6579 59.352 48.7184 60.5232 57 63C58.0848 63.3249 58.3403 64.9657 58 66C57.7241 66.8387 56.8774 67 56 67Z" fill="#B4B6BC"/>
</g>
</g>
</g>
<g id="Group_36">
<g id="Group_37">
<g id="Vector_20">
<path d="M56 59C55.7994 59 55.2024 59.0615 55 59C42.7534 55.2791 30.2466 55.2791 18 59C16.9192 59.3257 15.3337 59.0359 15 58C14.6643 56.9631 14.9291 55.3257 16 55C29.0454 51.037 43.9546 51.037 57 55C58.0709 55.3257 58.3359 56.9631 58 58C57.7276 58.8409 56.8662 59 56 59Z" fill="#B4B6BC"/>
</g>
</g>
</g>
<g id="Group_38">
<g id="Group_39">
<g id="Vector_21">
<path d="M17 50C16.1205 50 15.2766 49.8526 15 49C14.6591 47.9483 14.9126 46.3304 16 46C23.6033 43.6939 32.0576 42.6392 40 43C41.1377 43.0526 42.0545 43.8986 42 45C41.9455 46.1034 41.1457 47.0459 40 47C32.5397 46.6599 25.1375 47.8342 18 50C17.7945 50.0621 17.2037 50 17 50Z" fill="#B4B6BC"/>
</g>
</g>
</g>
<g id="Group_40">
<g id="Group_41">
<g id="Vector_22">
<path d="M55 50C54.8053 50 54.1964 50.0624 54 50C51.5052 49.2066 49.5817 48.4604 47 48C45.9259 47.8076 44.809 47.0872 45 46C45.1871 44.9138 45.9299 43.8076 47 44C49.7495 44.4909 53.341 45.1549 56 46C57.0392 46.3307 57.326 47.9471 57 49C56.7354 49.8538 55.8406 50 55 50Z" fill="#B4B6BC"/>
</g>
</g>
</g>
<g id="Group_42">
<g id="Group_43">
<g id="Vector_23">
<path d="M17 42C16.1301 42 15.2735 41.8679 15 41C14.6629 39.9293 14.9245 38.3363 16 38C27.615 34.3735 40.1776 34.1365 52 37C53.0975 37.2659 54.2674 37.9095 54 39C53.7326 40.0894 52.0896 41.2598 51 41C39.8978 38.308 28.9045 38.5945 18 42C17.7964 42.0632 17.2015 42 17 42Z" fill="#B4B6BC"/>
</g>
</g>
</g>
<g id="Group_44">
<g id="Group_45">
<g id="Vector_24">
<path d="M17 34C16.104 34 15.2817 32.9102 15 32C14.6527 30.8773 14.8922 30.3527 16 30C20.2339 28.6535 25.5875 27.4954 30 27C31.1612 26.8575 31.8727 27.8328 32 29C32.1273 30.1696 31.1549 30.8711 30 31C25.8587 31.4661 21.9726 32.7358 18 34C17.7903 34.0663 17.2076 34 17 34Z" fill="#B4B6BC"/>
</g>
</g>
</g>
<g id="Group_46">
<g id="Group_47">
<g id="Vector_25">
<path d="M52 33C51.8354 33 51.1664 33.0395 51 33C46.3303 31.8859 41.8037 31.0735 37 31C35.8356 30.9819 34.9816 30.1393 35 29C35.0184 27.8617 35.7882 26.9335 37 27C42.1181 27.0797 47.0257 27.8134 52 29C53.1315 29.27 54.2757 29.8929 54 31C53.7651 31.9431 52.9482 33 52 33Z" fill="#B4B6BC"/>
</g>
</g>
</g>
<g id="Group_48">
<g id="Group_49">
<g id="Vector_26">
<path d="M17 26C16.1244 26 15.2753 25.8194 15 25C14.6607 23.9893 14.9175 22.3175 16 22C24.9631 19.3745 34.6593 18.0305 44 19C45.1288 19.1161 46.1247 20.9471 46 22C45.8756 23.052 45.1427 23.1369 44 23C35.2356 22.0933 26.413 23.5337 18 26C17.7954 26.0599 17.2028 26 17 26Z" fill="#B4B6BC"/>
</g>
</g>
</g>
<g id="Group_50">
<g id="Group_51">
<g id="Vector_27">
<path d="M17 17C16.1659 17 15.2623 16.8146 15 16C14.6768 14.9945 14.9668 13.3146 16 13C17.3469 12.5884 19.6666 12.3156 21 12C22.0427 11.7495 22.7436 11.9768 23 13C23.2564 14.0232 22.0503 15.7514 21 16C19.7489 16.296 19.2666 16.6137 18 17C17.8048 17.0593 17.1932 17 17 17Z" fill="#B4B6BC"/>
</g>
</g>
</g>
<g id="Group_52">
<g id="Group_53">
<g id="Vector_28">
<path d="M52 16C51.8381 16 51.1638 16.0374 51 16C43.7549 14.3337 36.4091 14.2247 29 15C27.8622 15.1319 27.1254 14.0743 27 13C26.8746 11.9255 27.8625 10.1184 29 10C36.8888 9.17017 44.2854 10.2268 52 12C53.1134 12.2562 54.2713 12.9494 54 14C53.7691 14.8947 52.9331 16 52 16Z" fill="#B4B6BC"/>
</g>
</g>
</g>
<g id="Group_54">
<g id="Vector_29">
<path d="M52 38C52.0003 38.8147 53.3358 39.452 54 39L58 36L62 39C62.6642 39.452 64 38.815 64 38V6C64 5.19394 63.7217 4.32753 63 4C59.8872 2.58685 56.2493 1.87621 53 1C52.366 0.829097 51.9998 1.33067 52 2V38Z" fill="#717D94"/>
</g>
</g>
</g>
</g>
</svg>
