<svg width="300" height="300" viewBox="0 0 300 300" fill="none" xmlns="http://www.w3.org/2000/svg">
<path d="M5 266H61V238H5C1.47645 238 0 239.456 0 243V261C0 264.544 1.47645 266 5 266Z" fill="#B5ADB6"/>
<path d="M295 266H239V238H295C298.523 238 300 239.456 300 243V261C300 264.544 298.524 266 295 266Z" fill="#B5ADB6"/>
<path d="M295 238H277C280.748 238 282 239.456 282 243V261C282 264.544 280.749 266 277 266H295C298.748 266 300 264.544 300 261V243C300 239.456 298.749 238 295 238Z" fill="#A79BA7"/>
<path d="M117 276H65C59.3849 276 56 272.512 56 267V229C56 223.489 59.3843 220 65 220H117V276Z" fill="#A79BA7"/>
<path d="M183 276H235C240.615 276 244 272.512 244 267V229C244 223.489 240.616 220 235 220H183V276Z" fill="#A79BA7"/>
<path d="M234 220H220C225.131 220 229 223.488 229 229V267C229 272.511 225.132 276 220 276H234C239.131 276 243 272.512 243 267V229C243 223.488 239.131 220 234 220Z" fill="#918291"/>
<path d="M215 187C180.111 183.096 124.89 183.096 90 187C55.9843 190.804 52.2763 154.956 57 145C61.723 135.045 70.5291 121.505 71 112C71.2503 106.996 73.4543 98.578 75 93C75.7574 90.2724 78.6251 90.4951 80 93C83.067 98.5956 87.6227 104.389 90 107C90.5623 107.615 90.0735 103.814 90 103C88.7046 88.6313 97.9145 71.7867 104 61C105.46 58.419 112.45 58.1144 113 61C114.619 69.5624 116.253 75.3128 118 79C117.756 79.7375 118.33 79.7022 118 79C120.829 70.303 132.203 62.6779 137 56C139.145 53.015 138.165 48.1865 141 42C142.699 38.2719 144.686 31.0787 146 28C147.094 25.4303 157.906 25.4303 159 28C162.489 36.1942 164.566 51.2123 168 56C172.797 62.6779 184.171 70.303 187 79C186.67 79.7022 187.244 79.7375 187 79C187.941 77.0098 190.607 73.9446 192 70C193.192 66.6463 191.255 64.9332 192 61C192.55 58.1144 199.539 58.419 201 61C207.086 71.7867 216.295 88.6313 215 103C214.926 103.814 214.438 107.615 215 107C217.377 104.389 221.932 98.5956 225 93C226.375 90.4951 229.243 90.273 230 93C231.546 98.578 233.75 106.996 234 112C234.47 121.505 243.276 135.044 248 145C252.722 154.956 249.016 190.804 215 187Z" fill="#FE646F"/>
<path d="M177 84.0002H168C164.928 84.0002 164.145 81.9266 163 79.0002C159.811 70.8177 153.17 67.2137 149 61.0002C146.944 57.9294 142.719 53.3645 140 47.0002C141.633 43.165 143.737 31.1674 145 28.0002C146.051 25.3567 147.949 25.3567 149 28.0002C152.353 36.43 159.699 56.0749 163 61.0002C167.61 67.87 174.281 75.0527 177 84.0002Z" fill="#FD4755"/>
<path d="M211 102H201C196.743 102 197.181 96.9827 197 93.0003C196.595 84.1246 191.001 78.5609 187 70.0003C188.215 66.6544 191.24 63.9243 192 60.0003C192.561 57.1215 195.51 53.4253 197 56.0003C203.207 66.7624 212.321 87.6651 211 102Z" fill="#FD4755"/>
<path d="M243 150C238.792 139.363 229.421 118.154 229 108C228.779 102.654 226.375 99.9588 225 94.0001C224.327 91.0811 221.222 86.3263 220 89.0001C218.106 93.1451 217.968 100.135 216 103C216.536 106.139 215.894 105.453 216 108C216.421 118.154 220.792 139.363 225 150C228.635 159.189 230.375 187.295 211 192C211.976 192.118 215.059 191.874 216 192C246.294 196.066 247.208 160.637 243 150Z" fill="#FD4755"/>
<path d="M75 191C78.2908 191.908 79.5553 191.678 84 191C98.87 188.733 120.483 187.254 140 187C116.933 186.705 93.2269 188.484 75 191Z" fill="#FD4755"/>
<path d="M146 93H141C138.658 97.5144 135.833 101.934 132 107C126.011 114.916 118.814 122.605 121 135C124.023 152.136 150 149 150 149C150 149 165.977 152.136 169 135C171.187 122.605 146 93 146 93Z" fill="#FEE97D"/>
<path d="M164 107C158.691 99.0838 152.627 95.6216 150 88.9998C148.577 85.4123 147.365 85.3861 146 88.9998C145.115 91.3415 142.306 90.2118 141 92.9998C143.289 97.9105 146.613 101.95 150 107C155.53 115.246 162.051 123.199 160 136C158.24 146.981 147.503 149.25 141 150C144.977 150.458 150 150 150 150C150 150 171.164 153.696 174 136C176.051 123.199 169.53 115.245 164 107Z" fill="#FCDD5B"/>
<path d="M220 215C220 215 209.397 290 155 290C112.315 290 75 256.421 75 215C75 173.579 112.315 140 155 140C213.982 140 220 215 220 215Z" fill="#99E6FC"/>
<path d="M150 140C146.984 140 143.923 139.657 141 140C178.269 144.376 206 176.825 206 215C206 253.175 178.269 285.624 141 290C143.923 290.343 146.984 290 150 290C191.47 290 225 256.169 225 215C225 173.831 191.47 140 150 140Z" fill="#62DBFB"/>
<path d="M155 271C151.906 271 147.966 271.465 145 271C117.049 266.616 94 244.169 94 215C94 182.737 117.743 154 150 154C182.257 154 211 182.737 211 215C211 247.263 176.275 263.806 155 271Z" fill="#F2FBFF"/>
<path d="M150 154C146.945 154 143.926 153.529 141 154C168.191 158.383 188 181.19 188 210C188 238.81 168.191 266.617 141 271C143.926 271.472 146.945 271 150 271C181.442 271 207 241.91 207 210C207 178.09 181.442 154 150 154Z" fill="#DFF6FD"/>
<path d="M150 219C147.515 219 145 216.353 145 214V187C145 184.647 147.515 182 150 182C152.485 182 154 184.647 154 187V214C154 216.353 152.485 219 150 219Z" fill="#FE646F"/>
<path d="M150 253C159.113 253 169 243.113 169 234C169 224.887 159.113 220 150 220C140.887 220 136 224.887 136 234C136 243.113 140.887 253 150 253Z" fill="#6C7FD8"/>
<path d="M103 201C102.558 201 103.443 201.163 103 201L94 196C91.7328 195.167 88.2631 194.565 89 192C89.7364 189.435 91.7317 186.166 94 187L103 192C105.267 192.833 108.737 193.435 108 196C107.407 198.063 104.82 201 103 201Z" fill="#918291"/>
<path d="M127 177C125.554 177 117.915 178.204 117 177L112 168C110.481 166.002 109.91 159.452 112 158C114.09 156.548 125.482 156.002 127 158L132 168C133.519 169.998 134.09 175.548 132 177C131.17 177.577 127.953 177 127 177Z" fill="#918291"/>
<path d="M150 168C147.515 168 145 165.403 145 163V154C145 151.597 147.515 149 150 149C152.485 149 154 151.597 154 154V163C154 165.403 152.485 168 150 168Z" fill="#918291"/>
<path d="M178 177C177.047 177 173.83 177.577 173 177C170.91 175.549 171.481 169.998 173 168L178 158C179.518 156.002 190.91 156.547 193 158C195.09 159.452 194.519 166.002 193 168L188 177C187.085 178.204 179.446 177 178 177Z" fill="#918291"/>
<path d="M197 201C195.18 201 192.593 198.065 192 196C191.263 193.435 194.732 192.833 197 192L206 187C208.265 186.165 210.264 189.434 211 192C211.737 194.565 208.268 195.167 206 196L197 201C197.442 201 196.558 201.163 197 201Z" fill="#918291"/>
<path d="M155 149C119.932 149 89 179.203 89 214C89 248.791 119.931 275 155 275C190.069 275 216 248.791 216 214C216 179.203 190.068 149 155 149ZM155 266C124.988 266 98 243.769 98 214C98 184.225 124.987 158 155 158C185.012 158 207 184.225 207 214C207 243.769 185.012 266 155 266Z" fill="#B5ADB6"/>
<path d="M174 32C171.515 32 169 29.3963 169 27V14C169 11.6037 171.515 9 174 9C176.485 9 178 11.6037 178 14V27C178 29.3957 176.485 32 174 32Z" fill="#FE646F"/>
<path d="M113 41C115.485 41 117 39.4853 117 37C117 34.5147 115.485 32 113 32C110.515 32 108 34.5147 108 37C108 39.4853 110.515 41 113 41Z" fill="#FD4755"/>
</svg>
