<svg width="150" height="150" viewBox="0 0 150 150" fill="none" xmlns="http://www.w3.org/2000/svg">
<g id="Group">
<g id="Vector">
<path d="M82.5 0H142.5V140H82.5V0Z" fill="#4D5D79"/>
</g>
<g id="Vector_2">
<path d="M82.5 0V132.5H108.75C116.517 132.499 123.258 129.242 128.75 123.75C134.242 118.258 137.499 111.517 137.5 103.75V0H82.5Z" fill="#717D94"/>
</g>
<g id="Vector_3">
<path d="M0 140H150V150H0V140Z" fill="#4D5D79"/>
</g>
<g id="Group_2">
<g id="Vector_4">
<path d="M92.5 110H132.5V140H92.5V110Z" fill="#C7E2FB"/>
</g>
<g id="Vector_5">
<path d="M92.5 10H107.5V20H92.5V10Z" fill="#C7E2FB"/>
</g>
<g id="Vector_6">
<path d="M117.5 10H132.5V20H117.5V10Z" fill="#C7E2FB"/>
</g>
<g id="Vector_7">
<path d="M92.5 35H107.5V45H92.5V35Z" fill="#C7E2FB"/>
</g>
<g id="Vector_8">
<path d="M117.5 35H132.5V45H117.5V35Z" fill="#C7E2FB"/>
</g>
<g id="Vector_9">
<path d="M92.5 60H107.5V70H92.5V60Z" fill="#C7E2FB"/>
</g>
<g id="Vector_10">
<path d="M117.5 60H132.5V70H117.5V60Z" fill="#C7E2FB"/>
</g>
<g id="Vector_11">
<path d="M92.5 85H107.5V95H92.5V85Z" fill="#C7E2FB"/>
</g>
<g id="Vector_12">
<path d="M117.5 85H132.5V95H117.5V85Z" fill="#C7E2FB"/>
</g>
</g>
<g id="Vector_13">
<path d="M67.5 25H82.5V55H67.5V25Z" fill="#4D5D79"/>
</g>
<g id="Vector_14">
<path d="M67.5 25H75V55H67.5V25Z" fill="#717D94"/>
</g>
<g id="Vector_15">
<path d="M67.5 85H82.5V115H67.5V85Z" fill="#4D5D79"/>
</g>
<g id="Vector_16">
<path d="M67.5 85H75V115H67.5V85Z" fill="#717D94"/>
</g>
<g id="Vector_17">
<path d="M0 145H140C141.326 145 142.812 144.688 143.75 143.75C144.688 142.812 145 141.326 145 140H0V145Z" fill="#717D94"/>
</g>
<g id="Vector_18">
<path d="M92.5 10V17.5H98.75C100.49 17.5 101.269 16.2307 102.5 15C103.731 13.7693 105 12.9905 105 11.25V10H92.5Z" fill="#EBF7FE"/>
</g>
<g id="Vector_19">
<path d="M117.5 10V17.5H123.75C125.49 17.5 126.269 16.2307 127.5 15C128.731 13.7693 130 12.9905 130 11.25V10H117.5Z" fill="#EBF7FE"/>
</g>
<g id="Vector_20">
<path d="M117.5 35V42.5H123.75C125.49 42.5 126.269 41.2307 127.5 40C128.731 38.7693 130 37.9905 130 36.25V35H117.5Z" fill="#EBF7FE"/>
</g>
<g id="Vector_21">
<path d="M92.5 35V42.5H98.75C100.49 42.5 101.269 41.2307 102.5 40C103.731 38.7693 105 37.9905 105 36.25V35H92.5Z" fill="#EBF7FE"/>
</g>
<g id="Vector_22">
<path d="M92.5 60V67.5H98.75C100.49 67.5 101.269 66.2307 102.5 65C103.731 63.7693 105 62.9905 105 61.25V60H92.5Z" fill="#EBF7FE"/>
</g>
<g id="Vector_23">
<path d="M117.5 60V67.5H123.75C125.49 67.5 126.269 66.2307 127.5 65C128.731 63.7693 130 62.9905 130 61.25V60H117.5Z" fill="#EBF7FE"/>
</g>
<g id="Vector_24">
<path d="M117.5 85V92.5H123.75C125.49 92.5 126.269 91.2307 127.5 90C128.731 88.7693 130 87.9905 130 86.25V85H117.5Z" fill="#EBF7FE"/>
</g>
<g id="Vector_25">
<path d="M92.5 85V92.5H98.75C100.49 92.5 101.269 91.2307 102.5 90C103.731 88.7693 105 87.9905 105 86.25V85H92.5Z" fill="#EBF7FE"/>
</g>
<g id="Vector_26">
<path d="M92.5 132.5H107.5C112.443 132.502 116.895 131.088 121.25 128.75C125.605 126.412 129.771 122.871 132.5 118.75V110H92.5V132.5Z" fill="#EBF7FE"/>
</g>
<g id="Vector_27">
<path d="M110 110H115V140H110V110Z" fill="white"/>
</g>
<path id="Vector_28" d="M122.5 117.5C122.5 116.119 121.381 115 120 115C118.619 115 117.5 116.119 117.5 117.5V122.5C117.5 123.881 118.619 125 120 125C121.381 125 122.5 123.881 122.5 122.5V117.5Z" fill="white"/>
<path id="Vector_29" d="M107.5 127.5C107.5 126.119 106.381 125 105 125C103.619 125 102.5 126.119 102.5 127.5V132.5C102.5 133.881 103.619 135 105 135C106.381 135 107.5 133.881 107.5 132.5V127.5Z" fill="white"/>
<g id="Vector_30">
<path d="M7.5 0H67.5V140H7.5V0Z" fill="#4D5D79"/>
</g>
<g id="Vector_31">
<path d="M7.5 0V132.5H33.75C41.5167 132.499 48.2581 129.242 53.75 123.75C59.2419 118.258 62.4993 111.517 62.5 103.75V0H7.5Z" fill="#717D94"/>
</g>
<g id="Vector_32">
<path d="M17.5 110H57.5V140H17.5V110Z" fill="#C7E2FB"/>
</g>
<g id="Vector_33">
<path d="M17.5 10H32.5V20H17.5V10Z" fill="#C7E2FB"/>
</g>
<g id="Vector_34">
<path d="M42.5 10H57.5V20H42.5V10Z" fill="#C7E2FB"/>
</g>
<g id="Vector_35">
<path d="M17.5 35H32.5V45H17.5V35Z" fill="#C7E2FB"/>
</g>
<g id="Vector_36">
<path d="M42.5 35H57.5V45H42.5V35Z" fill="#C7E2FB"/>
</g>
<g id="Vector_37">
<path d="M17.5 60H32.5V70H17.5V60Z" fill="#C7E2FB"/>
</g>
<g id="Vector_38">
<path d="M42.5 60H57.5V70H42.5V60Z" fill="#C7E2FB"/>
</g>
<g id="Vector_39">
<path d="M17.5 85H32.5V95H17.5V85Z" fill="#C7E2FB"/>
</g>
<g id="Vector_40">
<path d="M42.5 85H57.5V95H42.5V85Z" fill="#C7E2FB"/>
</g>
<g id="Vector_41">
<path d="M17.5 10V17.5H23.75C25.4905 17.5 26.2693 16.2307 27.5 15C28.7307 13.7693 30 12.9905 30 11.25V10H17.5Z" fill="#EBF7FE"/>
</g>
<g id="Vector_42">
<path d="M42.5 10V17.5H48.75C50.4905 17.5 51.2693 16.2307 52.5 15C53.7307 13.7693 55 12.9905 55 11.25V10H42.5Z" fill="#EBF7FE"/>
</g>
<g id="Vector_43">
<path d="M42.5 35V42.5H48.75C50.4905 42.5 51.2693 41.2307 52.5 40C53.7307 38.7693 55 37.9905 55 36.25V35H42.5Z" fill="#EBF7FE"/>
</g>
<g id="Vector_44">
<path d="M17.5 35V42.5H23.75C25.4905 42.5 26.2693 41.2307 27.5 40C28.7307 38.7693 30 37.9905 30 36.25V35H17.5Z" fill="#EBF7FE"/>
</g>
<g id="Vector_45">
<path d="M17.5 60V67.5H23.75C25.4905 67.5 26.2693 66.2307 27.5 65C28.7307 63.7693 30 62.9905 30 61.25V60H17.5Z" fill="#EBF7FE"/>
</g>
<g id="Vector_46">
<path d="M42.5 60V67.5H48.75C50.4905 67.5 51.2693 66.2307 52.5 65C53.7307 63.7693 55 62.9905 55 61.25V60H42.5Z" fill="#EBF7FE"/>
</g>
<g id="Vector_47">
<path d="M42.5 85V92.5H48.75C50.4905 92.5 51.2693 91.2307 52.5 90C53.7307 88.7693 55 87.9905 55 86.25V85H42.5Z" fill="#EBF7FE"/>
</g>
<g id="Vector_48">
<path d="M17.5 85V92.5H23.75C25.4905 92.5 26.2693 91.2307 27.5 90C28.7307 88.7693 30 87.9905 30 86.25V85H17.5Z" fill="#EBF7FE"/>
</g>
<g id="Vector_49">
<path d="M17.5 132.5H32.5C37.4426 132.502 41.8953 131.088 46.25 128.75C50.6047 126.412 54.7708 122.871 57.5 118.75V110H17.5V132.5Z" fill="#EBF7FE"/>
</g>
<g id="Vector_50">
<path d="M35 110H40V140H35V110Z" fill="white"/>
</g>
<path id="Vector_51" d="M47.5 117.5C47.5 116.119 46.3807 115 45 115C43.6193 115 42.5 116.119 42.5 117.5V122.5C42.5 123.881 43.6193 125 45 125C46.3807 125 47.5 123.881 47.5 122.5V117.5Z" fill="white"/>
<path id="Vector_52" d="M32.5 127.5C32.5 126.119 31.3807 125 30 125C28.6193 125 27.5 126.119 27.5 127.5V132.5C27.5 133.881 28.6193 135 30 135C31.3807 135 32.5 133.881 32.5 132.5V127.5Z" fill="white"/>
</g>
</svg>
