<svg width="120" height="160" viewBox="0 0 120 160" fill="none" xmlns="http://www.w3.org/2000/svg">
<g id="Group">
<g id="Vector">
<path d="M113.75 13.75H6.25C2.72181 13.75 0 16.461 0 20V153.75C0 157.289 2.72181 160 6.25 160H113.75C117.278 160 120 157.289 120 153.75V20C120 16.4613 117.278 13.75 113.75 13.75Z" fill="#64798A"/>
</g>
<path id="Vector_2" d="M113.75 22.5H7.5V153.75H113.75V22.5Z" fill="#EBF0F3"/>
<path id="Vector_3" d="M113.75 18.75H7.5V150H113.75V18.75Z" fill="white"/>
<path id="Vector_4" d="M93.75 13.75H27.5V18.75H93.75V13.75Z" fill="#3A556A"/>
<path id="Vector_5" d="M93.75 18.75H27.5V30H93.75V18.75Z" fill="#E1E6E9"/>
<g id="Vector_6">
<path d="M85 10H68.75C68.5957 4.60777 65.2521 0 60 0C54.7463 0 50.1543 4.60777 50 10H33.75C32.2993 10 31.25 11.0006 31.25 12.5V26.25H87.5V12.5C87.4997 11.0006 86.4507 10 85 10Z" fill="#DC8744"/>
</g>
<path id="Vector_7" d="M23.75 70H13.75V83.75H23.75V70Z" fill="#E56353"/>
<path id="Vector_8" d="M37.5 53.75H27.5V83.75H37.5V53.75Z" fill="#27A2DB"/>
<path id="Vector_9" d="M51.25 37.5H41.25V83.75H51.25V37.5Z" fill="#44C4A1"/>
<path id="Vector_10" d="M65 58.75H55V82.5H65V58.75Z" fill="#FCD462"/>
<path id="Vector_11" d="M23.75 78.75H13.75V83.75H23.75V78.75Z" fill="#D15241"/>
<path id="Vector_12" d="M37.5 78.75H27.5V83.75H37.5V78.75Z" fill="#2D93BA"/>
<path id="Vector_13" d="M51.25 78.75H41.25V83.75H51.25V78.75Z" fill="#3EA69B"/>
<path id="Vector_14" d="M65 78.75H55V83.75H65V78.75Z" fill="#F6C358"/>
<g id="Group_2">
<path id="Vector_15" d="M106.25 91.25H13.75V95H106.25V91.25Z" fill="#D5D6DB"/>
<path id="Vector_16" d="M106.25 41.25H75V45H106.25V41.25Z" fill="#D5D6DB"/>
<path id="Vector_17" d="M106.25 53.75H75V57.5H106.25V53.75Z" fill="#D5D6DB"/>
<path id="Vector_18" d="M106.25 66.25H75V70H106.25V66.25Z" fill="#D5D6DB"/>
<path id="Vector_19" d="M106.25 78.75H75V82.5H106.25V78.75Z" fill="#D5D6DB"/>
<path id="Vector_20" d="M106.25 103.75H13.75V107.5H106.25V103.75Z" fill="#D5D6DB"/>
<path id="Vector_21" d="M106.25 115H13.75V146.25H106.25V115Z" fill="#D5D6DB"/>
</g>
<path id="Vector_22" d="M106.25 113.75H13.75V145H106.25V113.75Z" fill="#EBF0F3"/>
<g id="Vector_23">
<path d="M16.25 145C16.0502 145 15.1626 145.143 15 145C14.6379 144.684 14.6886 144.118 15 143.75L27.5 130C27.1379 129.794 27.7707 129.681 27.5 130L41.25 137.5L52.5 125C52.7743 124.711 53.3983 124.792 53.75 125L67.5 132.5L77.5 121.25C77.764 120.951 78.4083 119.816 78.75 120L91.25 127.5L102.5 117.5C102.869 117.185 103.442 117.132 103.75 117.5C104.061 117.87 104.112 118.434 103.75 118.75L92.5 128.75C92.2292 128.984 91.565 128.912 91.25 128.75L78.75 122.5L68.75 135C68.4757 135.309 67.8585 135.208 67.5 135L53.75 126.25L41.25 138.75C40.9792 139.035 41.5985 138.946 41.25 138.75L27.5 131.25L16.25 145C16.4936 145 16.0774 145.203 16.25 145Z" fill="#44C4A1"/>
</g>
<g id="Vector_24">
<path d="M16.25 145C15.9218 145 15.1455 145.325 15 145C14.8003 144.557 14.5634 143.951 15 143.75L30 136.25C29.7732 136.154 30.2201 136.145 30 136.25L41.25 141.25L51.25 135C51.0335 134.941 51.4462 134.894 51.25 135L65 138.75L78.75 131.25C78.5367 131.2 78.9462 131.131 78.75 131.25L93.75 135L98.75 132.5C99.1427 132.228 99.7293 132.101 100 132.5C100.271 132.9 100.396 133.473 100 133.75L95 136.25C94.797 136.391 93.9804 136.305 93.75 136.25L78.75 132.5L66.25 141.25C66.047 141.372 65.2301 141.312 65 141.25L51.25 137.5L41.25 142.5C41.0232 142.627 40.2404 142.601 40 142.5L30 138.75L16.25 145C16.3717 145 16.1348 145.053 16.25 145Z" fill="#E56353"/>
</g>
</g>
</svg>
