<svg width="160" height="117" viewBox="0 0 160 117" fill="none" xmlns="http://www.w3.org/2000/svg">
<g id="Group">
<g id="Group_2">
<g id="Group_3">
<g id="Vector">
<path d="M152.5 15.5H7.5C3.23097 15.5 0 18.7053 0 23V109.25C0 113.545 3.23097 116.75 7.5 116.75H152.5C156.769 116.75 160 113.545 160 109.25V23C160 18.7053 156.769 15.5 152.5 15.5Z" fill="#717D94"/>
</g>
</g>
<g id="Group_4">
<path id="Vector_2" d="M87.5 104.25H72.5V116.75H87.5V104.25Z" fill="#717D94"/>
</g>
<g id="Group_5">
<g id="Vector_3">
<path d="M148.75 95.5V103C148.75 104.381 147.669 105.5 146.25 105.5H12.5C11.081 105.5 10 104.381 10 103V95.5L25 88L87.5 90.5L138.75 88L148.75 95.5Z" fill="#E6BE8A"/>
</g>
</g>
<g id="Group_6">
<g id="Vector_4">
<path d="M13.75 100.5C35.0543 91.6946 59.035 91.8733 80 101.75V8.00001C58.3438 -2.20247 33.0602 -1.73169 11.25 8.00001C10.3115 8.41889 10 9.47117 10 10.5V98C10 99.875 12.0191 101.215 13.75 100.5Z" fill="#FFEBB7"/>
</g>
</g>
<g id="Group_7">
<g id="Vector_5">
<path d="M80 101.75C100.965 91.8729 124.946 91.6946 146.25 100.5C147.981 101.215 150 99.875 150 98V10.5C150 9.47117 149.689 8.41889 148.75 8.00001C126.94 -1.73169 101.656 -2.20247 80 8.00001V101.75Z" fill="#FFD788"/>
</g>
</g>
<g id="Group_8">
<g id="Group_9">
<g id="Vector_6">
<path d="M90 84.25C88.9524 84.25 87.8291 82.8886 87.5 81.75C87.094 80.3456 87.4548 79.6912 88.75 79.25C91.2394 78.4027 94.9361 77.3318 97.5 76.75C98.8265 76.4481 99.7213 77.8063 100 79.25C100.279 80.6908 98.8314 81.4481 97.5 81.75C95.0924 82.2968 93.5856 83.455 91.25 84.25C91.0049 84.333 90.2427 84.25 90 84.25Z" fill="#717D94"/>
</g>
</g>
</g>
<g id="Group_10">
<g id="Group_11">
<g id="Vector_7">
<path d="M140 84.25C139.746 84.25 139.006 84.3267 138.75 84.25C129.03 81.3423 118.891 79.7308 108.75 80.5C107.311 80.5982 106.363 79.3505 106.25 78C106.139 76.6486 107.331 75.6077 108.75 75.5C119.572 74.69 130.901 76.154 141.25 79.25C142.606 79.6561 142.925 81.7072 142.5 83C142.155 84.0484 141.097 84.25 140 84.25Z" fill="#717D94"/>
</g>
</g>
</g>
<g id="Group_12">
<g id="Group_13">
<g id="Vector_8">
<path d="M138.75 74.25C138.499 74.25 137.753 74.3269 137.5 74.25C122.192 69.5989 106.558 69.5989 91.25 74.25C89.9041 74.6572 87.9171 74.2949 87.5 73C87.0804 71.7039 87.4114 69.6572 88.75 69.25C105.057 64.2963 123.693 64.2963 140 69.25C141.339 69.6572 141.67 71.7039 141.25 73C140.91 74.0511 139.833 74.25 138.75 74.25Z" fill="#717D94"/>
</g>
</g>
</g>
<g id="Group_14">
<g id="Group_15">
<g id="Vector_9">
<path d="M90 63C88.9006 63 87.8454 62.8158 87.5 61.75C87.0739 60.4354 87.3908 58.413 88.75 58C98.2541 55.1174 108.815 53.799 118.75 54.25C120.172 54.3158 121.318 55.3733 121.25 56.75C121.184 58.1292 120.197 59.3074 118.75 59.25C109.427 58.8249 100.172 60.2927 91.25 63C90.9931 63.0777 90.2547 63 90 63Z" fill="#717D94"/>
</g>
</g>
</g>
<g id="Group_16">
<g id="Group_17">
<g id="Vector_10">
<path d="M138.75 63C138.507 63 137.746 63.0781 137.5 63C134.381 62.0083 131.977 61.0755 128.75 60.5C127.407 60.2596 126.011 59.359 126.25 58C126.486 56.6423 127.41 55.2596 128.75 55.5C132.187 56.1136 136.676 56.9436 140 58C141.299 58.4134 141.658 60.4339 141.25 61.75C140.919 62.8173 139.801 63 138.75 63Z" fill="#717D94"/>
</g>
</g>
</g>
<g id="Group_18">
<g id="Group_19">
<g id="Vector_11">
<path d="M138.75 53C138.499 53 137.753 53.0769 137.5 53C122.192 48.3482 106.558 48.3482 91.25 53C89.9041 53.4047 87.9171 53.0439 87.5 51.75C87.0804 50.4537 87.4114 48.4072 88.75 48C105.057 43.0456 123.693 43.0456 140 48C141.339 48.4072 141.67 50.4537 141.25 51.75C140.91 52.8012 139.833 53 138.75 53Z" fill="#717D94"/>
</g>
</g>
</g>
<g id="Group_20">
<g id="Group_21">
<g id="Vector_12">
<path d="M90 43C88.88 43 87.8519 41.6377 87.5 40.5C87.0659 39.0966 87.3652 38.4408 88.75 38C94.0424 36.3169 100.734 34.8693 106.25 34.25C107.714 34.0719 108.591 35.291 108.75 36.75C108.909 38.212 107.694 39.0889 106.25 39.25C101.073 39.8327 96.2158 41.4198 91.25 43C90.9879 43.0829 90.2595 43 90 43Z" fill="#717D94"/>
</g>
</g>
</g>
<g id="Group_22">
<g id="Group_23">
<g id="Vector_13">
<path d="M140 43C139.744 43 139.008 43.0788 138.75 43C131.417 40.7632 123.938 39.3669 116.25 39.25C114.814 39.228 113.727 38.1423 113.75 36.75C113.773 35.359 114.888 34.1687 116.25 34.25C124.438 34.3755 133.44 35.6182 141.25 38C142.617 38.4173 142.929 40.4217 142.5 41.75C142.15 42.8272 141.106 43 140 43Z" fill="#717D94"/>
</g>
</g>
</g>
<g id="Group_24">
<g id="Group_25">
<g id="Vector_14">
<path d="M90 33C88.9055 33 87.8438 32.7743 87.5 31.75C87.0758 30.4866 87.3969 28.3969 88.75 28C99.9513 24.7181 112.071 23.0382 123.75 24.25C125.161 24.3951 126.406 26.6839 126.25 28C126.094 29.315 125.189 29.4212 123.75 29.25C112.794 28.1167 101.766 29.9172 91.25 33C90.9942 33.075 90.2535 33 90 33Z" fill="#717D94"/>
</g>
</g>
</g>
<g id="Group_26">
<g id="Group_27">
<g id="Vector_15">
<path d="M138.75 33C138.509 33 137.744 33.0745 137.5 33C135.946 32.5239 135.345 32.1282 133.75 31.75C132.437 31.438 130.93 29.2792 131.25 28C131.57 26.7208 132.425 26.4404 133.75 26.75C135.445 27.1529 138.343 27.4935 140 28C141.289 28.3945 141.654 30.494 141.25 31.75C140.922 32.7685 139.792 33 138.75 33Z" fill="#717D94"/>
</g>
</g>
</g>
<g id="Group_28">
<g id="Group_29">
<g id="Vector_16">
<path d="M90 21.75C88.9574 21.75 87.8275 21.5183 87.5 20.5C87.0959 19.2431 87.4585 17.1433 88.75 16.75C90.4336 16.2355 93.3332 15.8945 95 15.5C96.3059 15.1869 97.1795 15.4711 97.5 16.75C97.8205 18.029 96.3129 20.1893 95 20.5C93.4361 20.87 92.8332 21.2671 91.25 21.75C91.006 21.8242 90.2415 21.75 90 21.75Z" fill="#717D94"/>
</g>
</g>
</g>
<g id="Group_30">
<g id="Group_31">
<g id="Vector_17">
<path d="M140 21.75C139.746 21.75 139.006 21.825 138.75 21.75C128.232 18.6672 117.208 16.8679 106.25 18C104.829 18.1616 103.906 18.0635 103.75 16.75C103.594 15.4339 104.839 13.1451 106.25 13C117.923 11.7882 130.046 13.4681 141.25 16.75C142.603 17.1469 142.924 19.2366 142.5 20.5C142.156 21.5243 141.094 21.75 140 21.75Z" fill="#717D94"/>
</g>
</g>
</g>
<g id="Group_32">
<g id="Group_33">
<g id="Vector_18">
<path d="M21.25 84.25C20.2024 84.25 19.0794 82.8886 18.75 81.75C18.344 80.3456 18.7048 79.6912 20 79.25C22.4894 78.4027 26.1861 77.3318 28.75 76.75C30.0787 76.4481 30.9713 77.8063 31.25 79.25C31.5287 80.6908 30.0814 81.4481 28.75 81.75C26.3424 82.2968 24.8356 83.455 22.5 84.25C22.2549 84.333 21.4927 84.25 21.25 84.25Z" fill="#B4B6BC"/>
</g>
</g>
</g>
<g id="Group_34">
<g id="Group_35">
<g id="Vector_19">
<path d="M70 84.25C69.7459 84.25 69.0063 84.3267 68.75 84.25C59.0318 81.3423 48.8907 79.7308 38.75 80.5C37.291 80.5982 36.363 79.3505 36.25 78C36.1392 76.6486 37.3312 75.6077 38.75 75.5C49.5724 74.69 60.8981 76.154 71.25 79.25C72.606 79.6561 72.9254 81.7072 72.5 83C72.1551 84.0484 71.0968 84.25 70 84.25Z" fill="#B4B6BC"/>
</g>
</g>
</g>
<g id="Group_36">
<g id="Group_37">
<g id="Vector_20">
<path d="M70 74.25C69.7492 74.25 69.003 74.3269 68.75 74.25C53.4418 69.5989 37.8082 69.5989 22.5 74.25C21.149 74.6572 19.1671 74.2949 18.75 73C18.3304 71.7039 18.6614 69.6572 20 69.25C36.3067 64.2963 54.9433 64.2963 71.25 69.25C72.5886 69.6572 72.9199 71.7039 72.5 73C72.1595 74.0511 71.0827 74.25 70 74.25Z" fill="#B4B6BC"/>
</g>
</g>
</g>
<g id="Group_38">
<g id="Group_39">
<g id="Vector_21">
<path d="M21.25 63C20.1506 63 19.0957 62.8158 18.75 61.75C18.3239 60.4354 18.6408 58.413 20 58C29.5041 55.1174 40.0721 53.799 50 54.25C51.4221 54.3158 52.5681 55.3733 52.5 56.75C52.4319 58.1292 51.4321 59.3074 50 59.25C40.6747 58.8249 31.4218 60.2927 22.5 63C22.2431 63.0777 21.5047 63 21.25 63Z" fill="#B4B6BC"/>
</g>
</g>
</g>
<g id="Group_40">
<g id="Group_41">
<g id="Vector_22">
<path d="M68.75 63C68.5066 63 67.7456 63.0781 67.5 63C64.3814 62.0083 61.9771 61.0755 58.75 60.5C57.4074 60.2596 56.0112 59.359 56.25 58C56.4838 56.6423 57.4124 55.2596 58.75 55.5C62.1869 56.1136 66.6763 56.9436 70 58C71.2991 58.4134 71.6575 60.4339 71.25 61.75C70.9193 62.8173 69.8007 63 68.75 63Z" fill="#B4B6BC"/>
</g>
</g>
</g>
<g id="Group_42">
<g id="Group_43">
<g id="Vector_23">
<path d="M21.25 53C20.1626 53 19.0919 52.835 18.75 51.75C18.3286 50.4117 18.6556 48.4204 20 48C34.5188 43.4669 50.222 43.1707 65 46.75C66.3718 47.0824 67.8343 47.8869 67.5 49.25C67.1657 50.6118 65.1119 52.0748 63.75 51.75C49.8723 48.385 36.1306 48.7431 22.5 53C22.2455 53.0791 21.5019 53 21.25 53Z" fill="#B4B6BC"/>
</g>
</g>
</g>
<g id="Group_44">
<g id="Group_45">
<g id="Vector_24">
<path d="M21.25 43C20.13 43 19.1022 41.6377 18.75 40.5C18.3159 39.0966 18.6152 38.4408 20 38C25.2924 36.3169 31.9844 34.8693 37.5 34.25C38.9515 34.0719 39.8408 35.291 40 36.75C40.1592 38.212 38.9436 39.0889 37.5 39.25C32.3234 39.8327 27.4658 41.4198 22.5 43C22.2379 43.0829 21.5095 43 21.25 43Z" fill="#B4B6BC"/>
</g>
</g>
</g>
<g id="Group_46">
<g id="Group_47">
<g id="Vector_25">
<path d="M65 41.75C64.7943 41.75 63.958 41.7993 63.75 41.75C57.9129 40.3574 52.2546 39.3419 46.25 39.25C44.7945 39.2274 43.727 38.1742 43.75 36.75C43.773 35.3271 44.7353 34.1668 46.25 34.25C52.6476 34.3496 58.7821 35.2668 65 36.75C66.4143 37.0875 67.8446 37.8661 67.5 39.25C67.2064 40.4289 66.1853 41.75 65 41.75Z" fill="#B4B6BC"/>
</g>
</g>
</g>
<g id="Group_48">
<g id="Group_49">
<g id="Vector_26">
<path d="M21.25 33C20.1555 33 19.0941 32.7743 18.75 31.75C18.3258 30.4866 18.6469 28.3969 20 28C31.2039 24.7181 43.324 23.0382 55 24.25C56.411 24.3951 57.6558 26.6839 57.5 28C57.3445 29.315 56.4283 29.4212 55 29.25C44.0445 28.1167 33.0162 29.9172 22.5 33C22.2442 33.075 21.5035 33 21.25 33Z" fill="#B4B6BC"/>
</g>
</g>
</g>
<g id="Group_50">
<g id="Group_51">
<g id="Vector_27">
<path d="M21.25 21.75C20.2074 21.75 19.0778 21.5183 18.75 20.5C18.3459 19.2431 18.7085 17.1433 20 16.75C21.6836 16.2355 24.5833 15.8945 26.25 15.5C27.5534 15.1869 28.4295 15.4711 28.75 16.75C29.0705 18.029 27.5629 20.1893 26.25 20.5C24.6861 20.87 24.0832 21.2671 22.5 21.75C22.256 21.8242 21.4915 21.75 21.25 21.75Z" fill="#B4B6BC"/>
</g>
</g>
</g>
<g id="Group_52">
<g id="Group_53">
<g id="Vector_28">
<path d="M65 20.5C64.7976 20.5 63.9547 20.5468 63.75 20.5C54.6936 18.4172 45.5114 18.2809 36.25 19.25C34.8278 19.4149 33.9068 18.0929 33.75 16.75C33.5932 15.4068 34.8281 13.1481 36.25 13C46.1109 11.9627 55.3567 13.2835 65 15.5C66.3918 15.8203 67.8391 16.6868 67.5 18C67.2114 19.1184 66.1663 20.5 65 20.5Z" fill="#B4B6BC"/>
</g>
</g>
</g>
<g id="Group_54">
<g id="Vector_29">
<path d="M65 48C65.0003 49.0184 66.6698 49.815 67.5 49.25L72.5 45.5L77.5 49.25C78.3302 49.815 80 49.0187 80 48V8C80 6.99243 79.6521 5.90941 78.75 5.5C74.859 3.73356 70.3116 2.84526 66.25 1.75C65.4576 1.53637 64.9997 2.16333 65 3V48Z" fill="#717D94"/>
</g>
</g>
</g>
</g>
</svg>
