<svg width="96" height="128" viewBox="0 0 96 128" fill="none" xmlns="http://www.w3.org/2000/svg">
<g id="Group">
<g id="Vector">
<path d="M91 11H5C2.17745 11 0 13.1688 0 16V123C0 125.831 2.17745 128 5 128H91C93.8226 128 96 125.831 96 123V16C96 13.1691 93.8226 11 91 11Z" fill="#64798A"/>
</g>
<path id="Vector_2" d="M91 18H6V123H91V18Z" fill="#EBF0F3"/>
<path id="Vector_3" d="M91 15H6V120H91V15Z" fill="white"/>
<path id="Vector_4" d="M75 11H22V15H75V11Z" fill="#3A556A"/>
<path id="Vector_5" d="M75 15H22V24H75V15Z" fill="#E1E6E9"/>
<g id="Vector_6">
<path d="M68 8H55C54.8766 3.68621 52.2017 0 48 0C43.797 0 40.1234 3.68621 40 8H27C25.8395 8 25 8.80046 25 10V21H70V10C69.9997 8.80046 69.1605 8 68 8Z" fill="#DC8744"/>
</g>
<path id="Vector_7" d="M19 56H11V67H19V56Z" fill="#E56353"/>
<path id="Vector_8" d="M30 43H22V67H30V43Z" fill="#27A2DB"/>
<path id="Vector_9" d="M41 30H33V67H41V30Z" fill="#44C4A1"/>
<path id="Vector_10" d="M52 47H44V66H52V47Z" fill="#FCD462"/>
<path id="Vector_11" d="M19 63H11V67H19V63Z" fill="#D15241"/>
<path id="Vector_12" d="M30 63H22V67H30V63Z" fill="#2D93BA"/>
<path id="Vector_13" d="M41 63H33V67H41V63Z" fill="#3EA69B"/>
<path id="Vector_14" d="M52 63H44V67H52V63Z" fill="#F6C358"/>
<g id="Group_2">
<path id="Vector_15" d="M85 73H11V76H85V73Z" fill="#D5D6DB"/>
<path id="Vector_16" d="M85 33H60V36H85V33Z" fill="#D5D6DB"/>
<path id="Vector_17" d="M85 43H60V46H85V43Z" fill="#D5D6DB"/>
<path id="Vector_18" d="M85 53H60V56H85V53Z" fill="#D5D6DB"/>
<path id="Vector_19" d="M85 63H60V66H85V63Z" fill="#D5D6DB"/>
<path id="Vector_20" d="M85 83H11V86H85V83Z" fill="#D5D6DB"/>
<path id="Vector_21" d="M85 92H11V117H85V92Z" fill="#D5D6DB"/>
</g>
<path id="Vector_22" d="M85 91H11V116H85V91Z" fill="#EBF0F3"/>
<g id="Vector_23">
<path d="M13 116C12.8402 116 12.1301 116.114 12 116C11.7103 115.747 11.7509 115.294 12 115L22 104C21.7103 103.835 22.2166 103.744 22 104L33 110L42 100C42.2194 99.769 42.7186 99.8335 43 100L54 106L62 97C62.2112 96.7607 62.7266 95.8529 63 96L73 102L82 94C82.2951 93.7483 82.7537 93.7059 83 94C83.2491 94.2957 83.2897 94.747 83 95L74 103C73.7834 103.187 73.252 103.129 73 103L63 98L55 108C54.7806 108.247 54.2868 108.166 54 108L43 101L33 111C32.7834 111.228 33.2788 111.157 33 111L22 105L13 116C13.1949 116 12.8619 116.162 13 116Z" fill="#44C4A1"/>
</g>
<g id="Vector_24">
<path d="M13 116C12.7375 116 12.1164 116.26 12 116C11.8402 115.645 11.6507 115.161 12 115L24 109C23.8185 108.923 24.1761 108.916 24 109L33 113L41 108C40.8268 107.953 41.157 107.915 41 108L52 111L63 105C62.8294 104.96 63.157 104.905 63 105L75 108L79 106C79.3142 105.783 79.7834 105.681 80 106C80.2166 106.32 80.3167 106.779 80 107L76 109C75.8376 109.113 75.1843 109.044 75 109L63 106L53 113C52.8376 113.097 52.1841 113.05 52 113L41 110L33 114C32.8185 114.102 32.1923 114.081 32 114L24 111L13 116C13.0973 116 12.9078 116.042 13 116Z" fill="#E56353"/>
</g>
</g>
</svg>
