<svg width="150" height="150" viewBox="0 0 150 150" fill="none" xmlns="http://www.w3.org/2000/svg">
<path d="M28.5 112.455H46.5V103.46H28.5C27.3736 103.46 27 103.82 27 104.959V110.956C27 112.094 27.3736 112.455 28.5 112.455Z" fill="#B5ADB6"/>
<path d="M121.5 112.455H103.5V103.46H121.5C122.626 103.46 123 103.82 123 104.959V110.956C123 112.094 122.626 112.455 121.5 112.455Z" fill="#B5ADB6"/>
<path d="M121.5 103.46H115.5C116.722 103.46 117 103.82 117 104.959V110.956C117 112.094 116.722 112.455 115.5 112.455H121.5C122.722 112.455 123 112.094 123 110.956V104.959C123 103.82 122.722 103.46 121.5 103.46Z" fill="#A79BA7"/>
<path d="M64.5 115.453H48C46.205 115.453 45 114.226 45 112.455V100.462C45 98.6911 46.2048 97.4632 48 97.4632H64.5V115.453Z" fill="#A79BA7"/>
<path d="M85.5 115.453H102C103.795 115.453 105 114.226 105 112.455V100.462C105 98.6911 103.795 97.4632 102 97.4632H85.5V115.453Z" fill="#A79BA7"/>
<path d="M102 97.4632H97.5C99.1731 97.4632 100.5 98.6909 100.5 100.462V112.455C100.5 114.226 99.1733 115.453 97.5 115.453H102C103.673 115.453 105 114.226 105 112.455V100.462C105 98.6909 103.673 97.4632 102 97.4632Z" fill="#918291"/>
<path d="M95.9999 86.9689C84.8417 85.7142 66.6584 85.7142 55.4999 86.9689C44.6211 88.1917 43.4892 76.6765 44.9999 73.4763C46.5105 70.2763 49.3493 66.0372 49.4999 62.982C49.58 61.3735 50.5056 58.7782 50.9999 56.9853C51.2422 56.1085 52.0602 56.1801 52.4999 56.9853C53.4808 58.7839 54.7397 60.6437 55.4999 61.4828C55.6798 61.6804 55.5235 60.2452 55.4999 59.9837C55.0857 55.3651 58.0537 49.9582 59.9999 46.491C60.467 45.6614 62.8239 45.5635 62.9999 46.491C63.5178 49.2432 63.9411 51.3026 64.4999 52.4877C64.4218 52.7248 64.6054 52.7135 64.4999 52.4877C65.4048 49.6923 68.9659 47.1383 70.4999 44.9918C71.1859 44.0324 71.0932 42.4828 71.9999 40.4943C72.5432 39.296 73.0798 36.9863 73.4999 35.9967C73.8497 35.1708 77.6502 35.1708 77.9999 35.9967C79.1157 38.6306 79.9016 43.4529 80.9999 44.9918C82.534 47.1383 86.0951 49.6923 86.9999 52.4877C86.8945 52.7135 87.0781 52.7248 86.9999 52.4877C87.301 51.848 88.0544 50.7573 88.4999 49.4894C88.881 48.4114 88.2617 47.7553 88.4999 46.491C88.6758 45.5635 91.0327 45.6614 91.4999 46.491C93.4464 49.9582 96.4142 55.3651 95.9999 59.9837C95.9764 60.2452 95.8201 61.6804 95.9999 61.4828C96.76 60.6437 98.0189 58.7839 98.9999 56.9853C99.4397 56.1801 100.258 56.1087 100.5 56.9853C100.994 58.7782 101.92 61.3735 102 62.982C102.15 66.0372 104.989 70.2761 106.5 73.4763C108.01 76.6765 106.879 88.1917 95.9999 86.9689Z" fill="#FE646F"/>
<path d="M84 53.9869H81C80.0038 53.9869 79.8715 53.4273 79.5 52.4878C78.4657 49.8608 76.3523 48.4859 75 46.491C74.3333 45.5052 72.8818 44.0367 72 41.9935C72.5295 40.7622 73.0905 37.0136 73.5 35.9968C73.841 35.1481 74.659 35.1481 75 35.9968C76.0876 38.7031 78.4294 44.9098 79.5 46.491C80.9953 48.6966 83.118 51.1143 84 53.9869Z" fill="#FD4755"/>
<path d="M94.5 59.9837H91.5C90.1554 59.9837 90.0571 58.2735 90 56.9854C89.872 54.1145 88.2638 52.2584 87 49.4895C87.3839 48.4072 88.26 47.7603 88.5 46.4911C88.6772 45.5599 89.5293 44.159 90 44.9919C91.9607 48.4729 94.9174 55.347 94.5 59.9837Z" fill="#FD4755"/>
<path d="M105 74.9756C103.642 71.5607 100.636 64.7426 100.5 61.483C100.429 59.7666 99.4438 58.8983 99 56.9854C98.7827 56.0483 97.8942 54.6279 97.5 55.4862C96.8889 56.8169 96.6348 59.064 96 59.9838C96.1728 60.9916 95.9659 60.6651 96 61.483C96.1358 64.7426 97.6425 71.5607 99 74.9756C100.173 77.9254 100.751 86.9579 94.5 88.4682C94.8149 88.5062 95.6963 88.4277 96 88.4682C105.774 89.7736 106.358 78.3905 105 74.9756Z" fill="#FD4755"/>
<path d="M51 88.469C52.0632 88.75 52.564 88.6787 54 88.469C58.8042 87.7676 65.6946 87.0474 72 86.969C64.5477 86.8775 56.8887 87.6906 51 88.469Z" fill="#FD4755"/>
<path d="M73.5001 56.9854H72.0001C71.2496 58.4482 70.2284 59.8414 69.0001 61.4829C67.0807 64.0479 65.2994 66.4613 66.0001 70.478C66.9689 76.0309 75.0001 74.9755 75.0001 74.9755C75.0001 74.9755 80.0312 76.0309 81.0001 70.478C81.701 66.4613 73.5001 56.9854 73.5001 56.9854Z" fill="#FEE97D"/>
<path d="M79.5 61.4829C77.7678 58.9525 75.8571 57.6029 75 55.4861C74.5357 54.3394 73.9455 54.331 73.5 55.4861C73.2112 56.2347 72.426 56.0941 72 56.9853C72.747 58.5551 73.8949 59.8687 75 61.4829C76.8042 64.1187 78.6692 66.3862 78 70.478C77.4258 73.9881 74.1219 74.736 72 74.9755C73.2976 75.122 75 74.9755 75 74.9755C75 74.9755 81.5747 76.1347 82.5 70.478C83.1692 66.386 81.3042 64.1185 79.5 61.4829Z" fill="#FCDD5B"/>
<path d="M97.5 95.964C97.5 95.964 93.9444 119.951 76.5 119.951C62.8114 119.951 51 109.212 51 95.964C51 82.7164 62.8114 71.9771 76.5 71.9771C95.4148 71.9771 97.5 95.964 97.5 95.964Z" fill="#99E6FC"/>
<path d="M75 71.9771C74.0305 71.9771 72.9394 71.8671 72 71.9771C83.9793 73.3823 93 83.705 93 95.9641C93 108.223 83.9793 118.546 72 119.951C72.9396 120.061 74.0307 119.951 75 119.951C88.3297 119.951 99 109.185 99 95.9641C99 82.7435 88.3297 71.9771 75 71.9771Z" fill="#62DBFB"/>
<path d="M76.5 113.954C75.5084 113.954 74.4505 114.104 73.5 113.954C64.5412 112.545 57 105.341 57 95.9641C57 85.5923 64.6612 76.4747 75 76.4747C85.3388 76.4747 94.5 85.5923 94.5 95.9641C94.5 106.336 83.319 111.642 76.5 113.954Z" fill="#F2FBFF"/>
<path d="M75 76.4746C74.0281 76.4746 72.931 76.3225 72 76.4746C80.6517 77.8889 87 85.1692 87 94.4648C87 103.76 80.6517 112.54 72 113.954C72.9309 114.106 74.0281 113.954 75 113.954C85.0042 113.954 93 104.761 93 94.4648C93 84.1689 85.0042 76.4746 75 76.4746Z" fill="#DFF6FD"/>
<path d="M75 97.4632C74.1716 97.4632 73.5 96.7267 73.5 95.9641V86.969C73.5 86.2064 74.1716 85.4698 75 85.4698C75.8284 85.4698 76.5 86.2064 76.5 86.969V95.9641C76.5 96.7267 75.8284 97.4632 75 97.4632Z" fill="#FE646F"/>
<path d="M75 107.957C77.8995 107.957 81 104.859 81 101.961C81 99.0628 77.8995 97.4632 75 97.4632C72.1005 97.4632 70.5 99.0628 70.5 101.961C70.5 104.859 72.1005 107.957 75 107.957Z" fill="#6C7FD8"/>
<path d="M59.9999 91.4664C59.8572 91.4664 60.143 91.5204 59.9999 91.4664L56.9999 89.9672C56.2676 89.691 55.2619 89.3183 55.4999 88.468C55.7378 87.6177 56.2672 86.6922 56.9999 86.9688L59.9999 88.468C60.7322 88.7442 61.738 89.1169 61.4999 89.9672C61.3083 90.6511 60.5877 91.4664 59.9999 91.4664Z" fill="#918291"/>
<path d="M67.4999 83.9706C67.033 83.9706 64.7954 84.3438 64.4999 83.9706L62.9999 80.9722C62.5096 80.3528 62.3253 78.4239 62.9999 77.9738C63.6746 77.5238 67.01 77.3544 67.4999 77.9738L68.9999 80.9722C69.4903 81.5916 69.6746 83.5205 68.9999 83.9706C68.732 84.1495 67.8077 83.9706 67.4999 83.9706Z" fill="#918291"/>
<path d="M74.9999 80.9722C74.1715 80.9722 73.4999 80.2315 73.4999 79.473V76.4746C73.4999 75.7162 74.1715 74.9755 74.9999 74.9755C75.8284 74.9755 76.4999 75.7162 76.4999 76.4746V79.473C76.4999 80.2315 75.8284 80.9722 74.9999 80.9722Z" fill="#918291"/>
<path d="M83.9999 83.9705C83.6923 83.9705 82.7681 84.1492 82.4999 83.9705C81.8253 83.5205 82.0096 81.5915 82.4999 80.9721L83.9999 77.9738C84.4899 77.3544 87.8251 77.5234 88.4999 77.9738C89.1746 78.4238 88.9903 80.3527 88.4999 80.9721L86.9999 83.9705C86.7044 84.3437 84.4668 83.9705 83.9999 83.9705Z" fill="#918291"/>
<path d="M89.9999 91.4664C89.4122 91.4664 88.6914 90.6516 88.4999 89.9673C88.2619 89.117 89.2674 88.7442 89.9999 88.4681L92.9999 86.9689C93.7317 86.6921 94.2621 87.6176 94.4999 88.4681C94.738 89.3183 93.7324 89.6911 92.9999 89.9673L89.9999 91.4664C90.1429 91.4664 89.857 91.5205 89.9999 91.4664Z" fill="#918291"/>
<path d="M76.5 74.9755C65.3167 74.9755 55.5 84.7853 55.5 95.964C55.5 107.141 65.3166 115.453 76.5 115.453C87.6834 115.453 96 107.141 96 95.964C96 84.7853 87.6833 74.9755 76.5 74.9755ZM76.5 112.455C66.9291 112.455 58.5 105.527 58.5 95.964C58.5 86.3988 66.9289 77.9738 76.5 77.9738C86.0709 77.9738 93 86.3988 93 95.964C93 105.527 86.0709 112.455 76.5 112.455Z" fill="#B5ADB6"/>
<path d="M82.5 37.4959C81.6716 37.4959 81 36.7777 81 35.9967V31.4992C81 30.7182 81.6716 30 82.5 30C83.3284 30 84 30.7182 84 31.4992V35.9967C84 36.7775 83.3284 37.4959 82.5 37.4959Z" fill="#FE646F"/>
<path d="M63 40.4943C63.8284 40.4943 64.5 39.8231 64.5 38.9952C64.5 38.1672 63.8284 37.496 63 37.496C62.1716 37.496 61.5 38.1672 61.5 38.9952C61.5 39.8231 62.1716 40.4943 63 40.4943Z" fill="#FD4755"/>
<circle cx="75" cy="75" r="74.5" stroke="#119FC3"/>
</svg>
