<svg width="150" height="150" viewBox="0 0 150 150" fill="none" xmlns="http://www.w3.org/2000/svg">
<path d="M111 36H39C35.2849 36 32.2792 37.8949 30 40.4809L28.5 47.9491V94.2517C28.5 101.131 32.1301 106.201 39 106.201H55.5C56.7371 106.201 57.6252 108.312 58.5 109.188L73.5 124.124H76.5C76.6789 123.999 77.8403 124.284 78 124.124L91.5 109.188C92.3748 108.312 94.7629 107.694 96 107.694H111C117.87 107.694 123 102.625 123 95.7454V47.9491C123 41.0692 117.87 36 111 36Z" fill="#DFEEFA"/>
<path d="M57 109.188L72 122.631C73.2881 123.923 75.057 125.136 76.5 124.124L60 106.201C58.5776 104.774 56.0121 104.707 54 104.707H39C33.9427 104.707 30 99.3263 30 94.2518V40.481C28.1028 42.6427 27 44.8422 27 47.9491V94.2518C27 101.028 32.2465 107.694 39 107.694H54C55.2161 107.694 56.1402 108.325 57 109.188Z" fill="#C9DFF7"/>
<path d="M98.9999 64.379C98.2626 57.638 92.0982 52.8692 85.4999 52.4299C81.503 52.1639 77.6833 54.3699 74.9999 56.9108C74.4225 57.4576 74.0775 57.4576 73.4999 56.9108C70.8166 54.3699 66.9968 52.1639 62.9999 52.4299C61.4062 52.5361 59.9187 53.294 58.4999 53.9235C54.0446 55.9001 50.9999 64.379 50.9999 64.379C49.437 78.6692 67.9025 90.8384 73.4999 94.2516H77.9999C84.9764 89.7193 100.423 77.3959 98.9999 64.379Z" fill="#FF2334"/>
<path d="M52.4999 62.8854C52.9203 59.2003 55.6924 56.17 58.4999 53.9236C53.9345 55.8714 50.0734 60.846 49.4999 65.8727C47.8961 79.9361 67.7553 92.3862 73.4999 95.7453C74.4913 96.3249 75.5085 96.3249 76.4999 95.7453C77.0107 95.4467 77.3015 94.6868 77.9999 94.2517C74.3378 92.2214 50.7643 78.1038 52.4999 62.8854Z" fill="#FF5F7A"/>
<circle cx="75" cy="75" r="74.5" stroke="#119FC3"/>
</svg>
