<svg width="100" height="100" viewBox="0 0 100 100" fill="none" xmlns="http://www.w3.org/2000/svg">
<g id="Group 5">
<path id="Subtract" fill-rule="evenodd" clip-rule="evenodd" d="M97.3852 66C99.0808 60.9765 100 55.5956 100 50C100 22.3858 77.6142 0 50 0C22.3858 0 0 22.3858 0 50C0 55.5956 0.919178 60.9765 2.61478 66H97.3852ZM83.6309 87H16.3691C25.2499 95.0768 37.05 100 50 100C62.95 100 74.7501 95.0768 83.6309 87Z" fill="#1696A3"/>
<g id="Group 2">
<path id="Vector 1" d="M30 79.5407H32M41.5 79.5407H39M39 79.5407V72.0406C39 72.0406 36.0882 71.7884 34.5 72.5407C31.8766 73.7833 32 79.5407 32 79.5407M39 79.5407H32" stroke="#1696A3" stroke-width="2.5"/>
<circle id="Ellipse 2" cx="48" cy="76" r="3.75" stroke="#1696A3" stroke-width="2.5"/>
<path id="Subtract_2" fill-rule="evenodd" clip-rule="evenodd" d="M55.0928 72C55.0928 72 55.0928 72 55.0928 72C55.0928 72 55.0928 72 55.0928 72V80.8C55.0928 80.9105 55.1823 81 55.2928 81H56.8928C57.0032 81 57.0928 80.9105 57.0928 80.8V76.7935C57.0928 76.5853 57.3711 76.5157 57.4692 76.6992L59.71 80.8942C59.7447 80.9593 59.8126 81 59.8864 81H61.914C61.9878 81 62.0556 80.9593 62.0904 80.8942L64.3312 76.6992C64.4292 76.5157 64.7076 76.5853 64.7076 76.7935V80.8C64.7076 80.9105 64.7971 81 64.9076 81H66.5076C66.618 81 66.7076 80.9105 66.7076 80.8V72C66.7076 72 66.7076 72 66.7076 72C66.7076 72 66.7076 72 66.7076 72H64.6938C64.62 72 64.5522 72.0407 64.5174 72.1058L61.0766 78.5473C61.0013 78.6883 60.7991 78.6883 60.7238 78.5473L57.283 72.1058C57.2482 72.0407 57.1804 72 57.1066 72H55.0928Z" fill="#1696A3"/>
</g>
<g id="Group 3">
<rect id="Rectangle 11" x="36" y="48" width="4" height="4" rx="0.3" fill="white"/>
<rect id="Rectangle 12" x="41" y="48" width="4" height="4" rx="0.3" fill="white"/>
<rect id="Rectangle 13" x="36" y="52.5" width="4" height="4" rx="0.3" fill="white"/>
<rect id="Rectangle 14" x="41" y="52.5" width="4" height="4" rx="0.3" fill="white"/>
</g>
<g id="Group 4">
<g id="Vector 3">
<path d="M56.9116 54.4088C56.9681 54.4671 57.0458 54.5 57.127 54.5H74.797C75.0612 54.5 75.1964 54.1832 75.0136 53.9924L64.0862 42.5899C64.031 42.5324 63.9552 42.4991 63.8755 42.4975L45 42.125L56.9116 54.4088Z" fill="white"/>
<path d="M24.5 54.5L40.7846 38.2154C40.903 38.097 41.0955 38.0985 41.2121 38.2187L45 42.125M45 42.125L56.9116 54.4088C56.9681 54.4671 57.0458 54.5 57.127 54.5H74.797C75.0612 54.5 75.1964 54.1832 75.0136 53.9924L64.0862 42.5899C64.031 42.5324 63.9552 42.4991 63.8755 42.4975L45 42.125Z" stroke="white" stroke-width="2.5" stroke-linecap="round"/>
</g>
<rect id="Rectangle 15" x="58" y="36" width="3" height="6" rx="0.3" fill="white"/>
</g>
</g>
</svg>
