<svg width="150" height="150" viewBox="0 0 150 150" fill="none" xmlns="http://www.w3.org/2000/svg">
<g id="Group 5">
<g id="Group">
<g id="Group_2">
<g id="Vector">
<path d="M100.869 123H45.493C40.5913 123 36 118.759 36 114.138V40.2923C36 38.7496 37.5279 37.3384 39.1643 37.3384H107.198C108.834 37.3384 110.362 38.7496 110.362 40.2923V114.138C110.362 118.759 105.771 123 100.869 123Z" fill="#DFEEFA"/>
</g>
</g>
<g id="Vector_2">
<path d="M107.198 37.3385H72.3899V123H100.869C105.875 123 110.362 118.759 110.362 114.139V40.2923C110.362 38.7497 108.869 37.3385 107.198 37.3385Z" fill="#C9DFF7"/>
</g>
<g id="Group_3">
<g id="Group_4">
<g id="Vector_3">
<path d="M48.6573 47.6769C46.9098 47.6769 45.493 46.2427 45.493 44.7231V29.9538C45.493 28.4342 46.9098 27 48.6573 27C50.4049 27 51.8217 28.4342 51.8217 29.9538V44.7231C51.8217 46.2427 50.4049 47.6769 48.6573 47.6769Z" fill="#606A70"/>
</g>
</g>
<g id="Group_5">
<g id="Vector_4">
<path d="M61.3147 47.6769C59.5672 47.6769 58.1504 46.2427 58.1504 44.7231V29.9538C58.1504 28.4342 59.5672 27 61.3147 27C63.0623 27 64.4791 28.4342 64.4791 29.9538V44.7231C64.4791 46.2427 63.0623 47.6769 61.3147 47.6769Z" fill="#606A70"/>
</g>
</g>
<g id="Group_6">
<g id="Vector_5">
<path d="M72.3899 47.6769C70.6424 47.6769 69.2256 46.2427 69.2256 44.7231V29.9538C69.2256 28.4342 70.6424 27 72.3899 27C74.1375 27 75.5543 28.4342 75.5543 29.9538V44.7231C75.5543 46.2427 74.1375 47.6769 72.3899 47.6769Z" fill="#606A70"/>
</g>
</g>
<g id="Group_7">
<g id="Vector_6">
<path d="M85.0473 47.6769C83.2997 47.6769 81.8829 46.2427 81.8829 44.7231V29.9538C81.8829 28.4342 83.2997 27 85.0473 27C86.7948 27 88.2116 28.4342 88.2116 29.9538V44.7231C88.2116 46.2427 86.795 47.6769 85.0473 47.6769Z" fill="#414952"/>
</g>
</g>
<g id="Group_8">
<g id="Vector_7">
<path d="M96.1224 47.6769C94.3749 47.6769 92.9581 46.2427 92.9581 44.7231V29.9538C92.9581 28.4342 94.3749 27 96.1224 27C97.87 27 99.2868 28.4342 99.2868 29.9538V44.7231C99.2868 46.2427 97.87 47.6769 96.1224 47.6769Z" fill="#414952"/>
</g>
</g>
</g>
<g id="Vector_8">
<path d="M75.5542 44.7231V29.9538C75.5542 28.4342 74.1374 27 72.3899 27V47.6769C74.1374 47.6769 75.5542 46.2427 75.5542 44.7231Z" fill="#414952"/>
</g>
</g>
<g id="Group_9">
<g id="Group_10">
<g id="Vector_9">
<path d="M73.972 63.923H51.8217C50.1785 63.923 48.6573 62.6005 48.6573 60.9692C48.6573 59.3379 50.1785 58.0153 51.8217 58.0153H73.972C75.6153 58.0153 77.1364 59.3379 77.1364 60.9692C77.1364 62.6007 75.6153 63.923 73.972 63.923Z" fill="#82A0D2"/>
</g>
</g>
<g id="Group_11">
<g id="Vector_10">
<path d="M96.1224 75.7384H51.8217C50.1861 75.7384 48.6573 74.4159 48.6573 72.7846C48.6573 71.1533 50.1861 69.8307 51.8217 69.8307H96.1224C97.758 69.8307 99.2867 71.1533 99.2867 72.7846C99.2867 74.4159 97.758 75.7384 96.1224 75.7384Z" fill="#82A0D2"/>
</g>
</g>
<g id="Group_12">
<g id="Vector_11">
<path d="M89.7937 86.0769H51.8217C50.1595 86.0769 48.6573 84.7544 48.6573 83.1231C48.6573 81.4918 50.1595 80.1693 51.8217 80.1693H89.7937C91.4559 80.1693 92.9581 81.4918 92.9581 83.1231C92.9581 84.7544 91.4559 86.0769 89.7937 86.0769Z" fill="#82A0D2"/>
</g>
</g>
<g id="Group_13">
<g id="Vector_12">
<path d="M78.7186 97.8923H51.8217C50.2073 97.8923 48.6573 96.5698 48.6573 94.9385C48.6573 93.3072 50.2073 91.9846 51.8217 91.9846H78.7186C80.333 91.9846 81.8829 93.3072 81.8829 94.9385C81.8829 96.5698 80.333 97.8923 78.7186 97.8923Z" fill="#82A0D2"/>
</g>
</g>
<g id="Group_14">
<g id="Vector_13">
<path d="M73.972 108.231H51.8217C50.1744 108.231 48.6573 106.908 48.6573 105.277C48.6573 103.646 50.1744 102.323 51.8217 102.323H73.972C75.6194 102.323 77.1364 103.646 77.1364 105.277C77.1364 106.908 75.6194 108.231 73.972 108.231Z" fill="#82A0D2"/>
</g>
</g>
<g id="Group_15">
<g id="Vector_14">
<path d="M77.1363 105.277C77.1363 103.646 75.7195 102.323 73.972 102.323V108.231C75.7195 108.231 77.1363 106.908 77.1363 105.277Z" fill="#9EBBDB"/>
</g>
<g id="Vector_15">
<path d="M78.7185 91.9846H73.972V97.8923H78.7185C80.2687 97.8923 81.8828 96.5698 81.8828 94.9385C81.8828 93.307 80.2687 91.9846 78.7185 91.9846Z" fill="#5877A6"/>
</g>
<g id="Vector_16">
<path d="M89.7937 80.1693H73.972V86.0769H89.7937C91.4926 86.0769 92.958 84.7544 92.958 83.1231C92.958 81.4918 91.4926 80.1693 89.7937 80.1693Z" fill="#5877A6"/>
</g>
<g id="Vector_17">
<path d="M96.1223 69.8307H73.972V75.7384H96.1223C97.7579 75.7384 99.2867 74.4159 99.2867 72.7846C99.2867 71.1533 97.7579 69.8307 96.1223 69.8307Z" fill="#5877A6"/>
</g>
<g id="Vector_18">
<path d="M73.972 58.0153V63.923C75.6789 63.923 77.1363 62.6005 77.1363 60.9692C77.1363 59.3379 75.6789 58.0153 73.972 58.0153Z" fill="#5877A6"/>
</g>
</g>
</g>
<g id="Group_16">
<g id="Group_17">
<g id="Vector_19">
<path d="M73.9721 108.231C73.1781 108.231 72.9753 107.301 72.3899 106.754C71.4894 105.912 70.2808 104.884 70.8078 103.8L78.7186 89.0308C78.4593 89.2715 78.8738 88.7114 78.7186 89.0308C79.1514 88.6289 81.8829 86.0769 81.8829 86.0769L94.5403 97.8923C94.5403 97.8923 91.81 100.44 91.376 100.846C91.1203 101.085 91.7141 100.702 91.376 100.846L75.5543 108.231C75.1487 108.403 74.3992 108.231 73.9721 108.231Z" fill="#FFEDD6"/>
</g>
</g>
<g id="Vector_20">
<path d="M73.972 108.231C74.3886 108.231 75.1586 108.405 75.5542 108.231L91.3759 100.846C91.1267 101.088 91.7057 100.701 91.3759 100.846C91.7992 100.436 94.5402 97.8924 94.5402 97.8924L88.2115 91.9847L72.3898 106.754C72.961 107.307 73.1977 108.231 73.972 108.231Z" fill="#FFDAAB"/>
</g>
<g id="Group_18">
<g id="Vector_21">
<path d="M78.7185 89.0309L116.691 53.5847C118.391 52.0141 120.615 50.6309 123.019 50.6309C125.424 50.6309 127.648 52.0141 129.348 53.5847C132.858 56.8266 132.857 62.158 129.348 65.4001L91.3758 100.846L78.7185 89.0309Z" fill="#FFE645"/>
</g>
</g>
<g id="Vector_22">
<path d="M91.3759 100.846L129.348 65.3999C132.86 62.1931 132.86 56.7913 129.348 53.5845L85.0472 94.9384L91.3759 100.846Z" fill="#FFB500"/>
</g>
<path id="Vector_23" d="M113.547 56.6244L103.252 66.1538L115.935 77.8936L126.229 68.3643L113.547 56.6244Z" fill="#606A70"/>
<path id="Vector_24" d="M120.473 61.9482L110.362 71.3077L116.665 77.1423L126.776 67.7828L120.473 61.9482Z" fill="#414952"/>
<g id="Group_19">
<g id="Vector_25">
<path d="M129.348 53.5847C127.646 52.048 125.426 50.6309 123.019 50.6309C120.613 50.6309 118.702 51.7133 117 53.25L113.526 56.5386L126.184 68.3539L129.348 63.9232C132.86 60.7511 132.86 56.7566 129.348 53.5847Z" fill="#FF826E"/>
</g>
<g id="Vector_26">
<path d="M126.184 68.3538L129.348 65.3999C132.884 62.3461 132.884 56.6384 129.348 53.5845L119.855 62.4461L126.184 68.3538Z" fill="#FE5857"/>
</g>
</g>
<g id="Group_20">
<g id="Vector_27">
<path d="M72.3901 100.846L70.808 103.8C70.3165 104.814 71.5501 105.966 72.3901 106.754C72.9361 107.266 73.2318 108.231 73.9723 108.231C74.3707 108.231 75.1762 108.392 75.5545 108.231L78.7188 106.754L72.3901 100.846Z" fill="#416191"/>
</g>
<g id="Vector_28">
<path d="M73.972 108.231C74.3341 108.231 75.2104 108.384 75.5542 108.231L78.7185 106.754L75.5542 103.8L72.3898 106.754C72.8861 107.241 73.299 108.231 73.972 108.231Z" fill="#28415E"/>
</g>
</g>
</g>
<circle id="Ellipse" cx="75" cy="75" r="74.5" stroke="#119FC3"/>
</g>
</svg>
